<svg xmlns="http://www.w3.org/2000/svg" width="40" height="40" viewBox="0 0 40 40">
  <g id="Group_20103" data-name="Group 20103" transform="translate(-980 -8634)">
    <circle id="Ellipse_528" data-name="Ellipse 528" cx="20" cy="20" r="20" transform="translate(980 8634)" fill="#e50cf5"/>
    <g id="instagram_icon_125245" transform="translate(992.001 8646)">
      <path id="Path_5064" data-name="Path 5064" d="M33.215,29a4.015,4.015,0,1,0,4,4.015A4.028,4.028,0,0,0,33.215,29Zm0,7.079a3.064,3.064,0,1,1,3.045-3.064A3.062,3.062,0,0,1,33.215,36.079Z" transform="translate(-25.014 -24.814)" fill="#fff"/>
      <path id="Path_5065" data-name="Path 5065" d="M67.322,17.1a1.522,1.522,0,1,0,1.085,2.607h0a1.612,1.612,0,0,0,.457-1.066v-.019A1.56,1.56,0,0,0,67.322,17.1Zm.4,1.922a.612.612,0,0,1-.818,0,.548.548,0,0,1-.171-.4.518.518,0,0,1,.171-.4.548.548,0,0,1,.4-.171.587.587,0,0,1,.59.552A.531.531,0,0,1,67.722,19.022Z" transform="translate(-54.649 -15.178)" fill="#fff"/>
      <path id="Path_5066" data-name="Path 5066" d="M18.732,7H12.052A4.848,4.848,0,0,0,7.2,11.852v6.7A4.848,4.848,0,0,0,12.052,23.4h6.7A4.848,4.848,0,0,0,23.6,18.551v-6.7A4.877,4.877,0,0,0,18.732,7Zm3.9,11.551a3.906,3.906,0,0,1-3.9,3.9H12.052a3.906,3.906,0,0,1-3.9-3.9v-6.7a3.906,3.906,0,0,1,3.9-3.9h6.7a3.906,3.906,0,0,1,3.9,3.9v6.7Z" transform="translate(-7.2 -7)" fill="#fff"/>
    </g>
  </g>
</svg>
