<svg xmlns="http://www.w3.org/2000/svg" width="40" height="40" viewBox="0 0 40 40">
  <g id="Group_20102" data-name="Group 20102" transform="translate(-880 -8634)">
    <circle id="Ellipse_527" data-name="Ellipse 527" cx="20" cy="20" r="20" transform="translate(880 8634)" fill="#e50cf5"/>
    <g id="discord-icon-svgrepo-com" transform="translate(891.361 8647.054)">
      <path id="Path_5063" data-name="Path 5063" d="M15.1,1.156A14.517,14.517,0,0,0,11.421,0a10.793,10.793,0,0,0-.471.978,13.5,13.5,0,0,0-4.075,0A10.454,10.454,0,0,0,6.4,0a14.469,14.469,0,0,0-3.68,1.158A15.422,15.422,0,0,0,.076,11.485,14.7,14.7,0,0,0,4.586,13.8a11.219,11.219,0,0,0,.966-1.591,9.495,9.495,0,0,1-1.521-.74c.128-.094.252-.193.373-.3a10.393,10.393,0,0,0,9.017,0c.122.1.247.2.373.3a9.47,9.47,0,0,1-1.524.742,11.163,11.163,0,0,0,.966,1.591,14.672,14.672,0,0,0,4.513-2.312A15.407,15.407,0,0,0,15.1,1.156ZM5.951,9.406a1.73,1.73,0,0,1-1.6-1.823,1.721,1.721,0,0,1,1.6-1.824,1.71,1.71,0,0,1,1.6,1.824A1.719,1.719,0,0,1,5.951,9.406Zm5.922,0a1.73,1.73,0,0,1-1.6-1.823,1.721,1.721,0,0,1,1.6-1.824,1.71,1.71,0,0,1,1.6,1.824A1.72,1.72,0,0,1,11.873,9.406Z" transform="translate(0)" fill="#fff"/>
    </g>
  </g>
</svg>
