<svg xmlns="http://www.w3.org/2000/svg" width="40" height="40" viewBox="0 0 40 40">
  <g id="Group_20250" data-name="Group 20250" transform="translate(-1065 -8576.132)">
    <circle id="Ellipse_529" data-name="Ellipse 529" cx="20" cy="20" r="20" transform="translate(1065 8576.132)" fill="#e50cf5"/>
    <g id="XMLID_801_" transform="translate(1077 8587.791)">
      <path id="XMLID_802_" d="M8.187,99.73H5.169a.242.242,0,0,0-.242.242v9.7a.242.242,0,0,0,.242.242H8.187a.242.242,0,0,0,.242-.242v-9.7A.242.242,0,0,0,8.187,99.73Z" transform="translate(-4.688 -94.569)" fill="#fff"/>
      <path id="XMLID_803_" d="M1.991.341A1.99,1.99,0,1,0,3.981,2.33,1.993,1.993,0,0,0,1.991.341Z" transform="translate(0 0)" fill="#fff"/>
      <path id="XMLID_804_" d="M112.2,94.761a3.545,3.545,0,0,0-2.652,1.113v-.63a.242.242,0,0,0-.242-.242h-2.89a.242.242,0,0,0-.242.242v9.7a.242.242,0,0,0,.242.242h3.011a.242.242,0,0,0,.242-.242v-4.8c0-1.616.439-2.246,1.566-2.246,1.227,0,1.325,1.01,1.325,2.329v4.714a.242.242,0,0,0,.242.242h3.012a.242.242,0,0,0,.242-.242V99.622C116.06,97.218,115.6,94.761,112.2,94.761Z" transform="translate(-101.027 -89.841)" fill="#fff"/>
    </g>
  </g>
</svg>
