<svg xmlns="http://www.w3.org/2000/svg" xmlns:xlink="http://www.w3.org/1999/xlink" width="2477.831" height="2510.181" viewBox="0 0 2477.831 2510.181" id="meta">
<style>
      #meta{
          -webkit-animation: rotating 40s linear infinite;
  -moz-animation: rotating 40s linear infinite;
  -ms-animation: rotating 40s linear infinite;
  -o-animation: rotating 40s linear infinite;
  animation: rotating 40s linear infinite;
      }
      @keyframes rotating {
  from {
    -ms-transform: rotate(0deg);
    -moz-transform: rotate(0deg);
    -webkit-transform: rotate(0deg);
    -o-transform: rotate(0deg);
    transform: rotate(0deg);
  }
  to {
    -ms-transform: rotate(-360deg);
    -moz-transform: rotate(-360deg);
    -webkit-transform: rotate(-360deg);
    -o-transform: rotate(-360deg);
    transform: rotate(-360deg);
  }
}
  </style>
  <defs>
    <clipPath id="clip-path">
      <rect id="Rectangle_826" data-name="Rectangle 826" width="2355.969" height="2390.155" fill="#fff"/>
    </clipPath>
  </defs>
  <g id="Group_1540" data-name="Group 1540" transform="translate(125.091 -0.005) rotate(3)">
    <path id="Path_15050" data-name="Path 15050" d="M158.488,952.617,49.731,914.97l86.719-33.417L88.684,801.8l108.954,37.716,8.267-23.883-142.114-49.2L54.363,793.68l45.176,75.1-82,31.292L8.175,927.109,150.288,976.3Z" transform="translate(-0.518 -48.56)" fill="#fff"/>
    <g id="Group_1539" data-name="Group 1539" transform="translate(0 0.005)">
      <g id="Group_1538" data-name="Group 1538" clip-path="url(#clip-path)">
        <path id="Path_15051" data-name="Path 15051" d="M128.328,740.2a26.115,26.115,0,0,0,10.55,9.973l57.565,30.545a26.11,26.11,0,0,0,14.173,3.147,30.6,30.6,0,0,0,13.7-4.2,26.1,26.1,0,0,0,9.973-10.549l44.546-83.95-21.955-11.651-44.155,83.212a3.923,3.923,0,0,1-5.365,1.645l-16.975-9.007L236.4,662.644,196.544,641.5a26.674,26.674,0,0,0-14.124-3.238,29.717,29.717,0,0,0-13.649,4.107A26.531,26.531,0,0,0,158.7,653.1l-31.426,59.227a26.127,26.127,0,0,0-3.147,14.171,30.634,30.634,0,0,0,4.2,13.7m21.294-16.957,30.644-57.75a3.923,3.923,0,0,1,5.365-1.647l19,10.085-34.364,64.76-19-10.083a3.923,3.923,0,0,1-1.646-5.366" transform="translate(-7.861 -40.442)" fill="#fff"/>
        <path id="Path_15052" data-name="Path 15052" d="M281.57,653.978a29.4,29.4,0,0,0,14.066-2.716,26.652,26.652,0,0,0,11.1-9.516l25.39-37.546-20.591-13.924-24.92,36.855A3.922,3.922,0,0,1,281.1,628.2L225.215,590.4l27.144-40.142-20.59-13.923-27.144,40.143L173.306,555.3l-13.922,20.591,108.487,73.359a26.655,26.655,0,0,0,13.7,4.725" transform="translate(-10.098 -33.986)" fill="#fff"/>
        <path id="Path_15053" data-name="Path 15053" d="M333.736,450.321a3.925,3.925,0,0,1,5.594-.456L353.977,462.3l-63.546,74.827,34.389,29.2a26.676,26.676,0,0,0,13.1,6.193,29.364,29.364,0,0,0,14.279-1.164,26.633,26.633,0,0,0,12.071-8.246l61.519-72.438-71.007-60.3a26.678,26.678,0,0,0-13.1-6.194,29.715,29.715,0,0,0-14.212,1.086,26.524,26.524,0,0,0-12.14,8.324l-61.518,72.44,18.945,16.09Zm37.595,26.72,19.422,16.5-44.887,52.857a3.923,3.923,0,0,1-5.594.456l-16.4-13.926Z" transform="translate(-16.081 -26.855)" fill="#fff"/>
        <path id="Path_15054" data-name="Path 15054" d="M500.556,418.4,469.407,283.484l-21.433,19.274,24.192,101.561-98.43-34.8L352.3,388.789,482.85,434.317Z" transform="translate(-22.321 -17.966)" fill="#fff"/>
        <path id="Path_15055" data-name="Path 15055" d="M509.436,292.039,546.122,345.9a26.1,26.1,0,0,0,11.072,9.39,30.621,30.621,0,0,0,14.076,2.671,26.12,26.12,0,0,0,13.741-4.685l78.547-53.5-13.993-20.543-77.856,53.031a3.923,3.923,0,0,1-5.513-1.045l-10.818-15.883,81.137-55.265-25.4-37.288a26.686,26.686,0,0,0-10.986-9.45,29.706,29.706,0,0,0-13.989-2.728,26.525,26.525,0,0,0-13.915,4.8L516.812,253.15a26.124,26.124,0,0,0-9.39,11.073,30.648,30.648,0,0,0-2.67,14.075,26.114,26.114,0,0,0,4.684,13.741m20.376-16.28a3.832,3.832,0,0,1,1.684-2.536l54.033-36.8a3.923,3.923,0,0,1,5.514,1.046l12.112,17.781L542.56,296.517l-12.11-17.779a3.835,3.835,0,0,1-.639-2.979" transform="translate(-31.978 -13.346)" fill="#fff"/>
        <path id="Path_15056" data-name="Path 15056" d="M685.582,288.157l22-11.569-42.97-81.712a3.923,3.923,0,0,1,1.665-5.359L725.249,158.5l-11.569-22-59.711,31.4a26.287,26.287,0,0,0-10.5,9.884,30.327,30.327,0,0,0-4.344,13.729,26.131,26.131,0,0,0,3.094,14.185Z" transform="translate(-40.49 -8.654)" fill="#fff"/>
        <path id="Path_15057" data-name="Path 15057" d="M757.719,165.436a26.11,26.11,0,0,0,8.629,11.675,30.614,30.614,0,0,0,13.09,5.819,26.109,26.109,0,0,0,14.45-1.416l61.8-23.764a3.844,3.844,0,0,1,3.044.059,3.617,3.617,0,0,1,2.009,2.025l5.548,14.426a3.922,3.922,0,0,1-2.281,5.129l-61.02,23.464a3.923,3.923,0,0,1-5.128-2.279l-1.125-2.924-23.2,8.921,1.424,3.7a26.115,26.115,0,0,0,8.629,11.675,30.612,30.612,0,0,0,13.092,5.819,26.1,26.1,0,0,0,14.448-1.416l62.581-24.064a26.5,26.5,0,0,0,11.87-8.7,30.64,30.64,0,0,0,5.819-13.092,26.135,26.135,0,0,0-1.416-14.449l-6.147-15.986a26.142,26.142,0,0,0-8.629-11.675,30.668,30.668,0,0,0-13.091-5.819,26.514,26.514,0,0,0-14.643,1.491l-61.8,23.764a3.823,3.823,0,0,1-3.044-.06,3.591,3.591,0,0,1-2.01-2.025l-5.548-14.427a3.922,3.922,0,0,1,2.281-5.127l61.02-23.466a3.923,3.923,0,0,1,5.129,2.28l1.124,2.925,23.394-9-1.425-3.7a26.132,26.132,0,0,0-8.629-11.675,30.659,30.659,0,0,0-13.091-5.819,26.516,26.516,0,0,0-14.644,1.491L767.65,113.28a26.143,26.143,0,0,0-11.675,8.629A30.64,30.64,0,0,0,750.156,135a26.108,26.108,0,0,0,1.416,14.45Z" transform="translate(-47.5 -5.535)" fill="#fff"/>
        <path id="Path_15058" data-name="Path 15058" d="M913.191,159.041a26.116,26.116,0,0,0,7.065,12.683,30.623,30.623,0,0,0,12.239,7.447,26.1,26.1,0,0,0,14.511.442l92.339-22.481-5.879-24.149-91.527,22.284a3.921,3.921,0,0,1-4.795-2.917L932.6,133.678l95.383-23.222L1017.31,66.621a26.687,26.687,0,0,0-6.964-12.708,29.714,29.714,0,0,0-12.138-7.47,26.513,26.513,0,0,0-14.715-.4l-65.144,15.86a26.135,26.135,0,0,0-12.683,7.065,30.636,30.636,0,0,0-7.446,12.239,26.121,26.121,0,0,0-.444,14.51Zm9.381-71.4a3.839,3.839,0,0,1,2.468-1.783l63.521-15.466a3.924,3.924,0,0,1,4.795,2.918l5.09,20.9-71.234,17.342-5.089-20.9a3.828,3.828,0,0,1,.449-3.011" transform="translate(-56.83 -2.869)" fill="#fff"/>
        <path id="Path_15059" data-name="Path 15059" d="M1396.039,142.066a27.786,27.786,0,0,0,13.275,6.3l119.715,22.287,4.626-24.847-115.4-21.484a7.553,7.553,0,0,1-4.976-2.946,6.99,6.99,0,0,1-1.078-5.618l15.6-83.78a7.007,7.007,0,0,1,3.029-4.855,7.561,7.561,0,0,1,5.7-.956l115.4,21.485,4.625-24.846L1436.84.515a28.015,28.015,0,0,0-32.883,22.56l-17.2,92.4a28.018,28.018,0,0,0,9.285,26.588" transform="translate(-87.83 -0.005)" fill="#fff"/>
        <path id="Path_15060" data-name="Path 15060" d="M1561.568,167.795a30.6,30.6,0,0,0,6.318,12.858,26.092,26.092,0,0,0,12,8.176l63.457,21.645a26.481,26.481,0,0,0,14.69.928,29.685,29.685,0,0,0,12.76-6.352,26.663,26.663,0,0,0,8.076-12.029l21.039-61.68a26.694,26.694,0,0,0,.96-14.458,29.714,29.714,0,0,0-6.219-12.825,26.536,26.536,0,0,0-12.2-8.242l-63.458-21.644a26.129,26.129,0,0,0-14.493-.862,30.663,30.663,0,0,0-12.859,6.318,26.118,26.118,0,0,0-8.174,12L1562.429,153.3a26.106,26.106,0,0,0-.861,14.492m24.656-7.259,20.5-60.1a3.923,3.923,0,0,1,5.037-2.476l61.876,21.105a3.922,3.922,0,0,1,2.475,5.037l-20.5,60.1a3.923,3.923,0,0,1-5.037,2.475L1588.7,165.574a3.922,3.922,0,0,1-2.475-5.038" transform="translate(-98.897 -4.609)" fill="#fff"/>
        <path id="Path_15061" data-name="Path 15061" d="M1714.867,237.966l43.292-81.542a3.83,3.83,0,0,1,2.336-1.952,3.607,3.607,0,0,1,2.845.21l39.849,21.156a3.513,3.513,0,0,1,1.859,2.287,4.044,4.044,0,0,1-.4,2.98l-43.291,81.543,22.323,11.85,43.291-81.542a3.828,3.828,0,0,1,2.337-1.952,3.607,3.607,0,0,1,2.844.21l39.663,21.058a3.924,3.924,0,0,1,1.645,5.366L1830.17,299.18l21.954,11.656,43.682-82.28a26.675,26.675,0,0,0,3.242-14.123,29.732,29.732,0,0,0-4.105-13.649,26.509,26.509,0,0,0-10.733-10.073l-134.672-71.5-56.808,107Z" transform="translate(-107.248 -7.558)" fill="#fff"/>
        <rect id="Rectangle_822" data-name="Rectangle 822" width="25.065" height="24.856" transform="translate(1834.924 204.515) rotate(-55.525)" fill="#fff"/>
        <rect id="Rectangle_823" data-name="Rectangle 823" width="121.145" height="24.855" transform="translate(1758.074 316.437) rotate(-55.525)" fill="#fff"/>
        <path id="Path_15062" data-name="Path 15062" d="M1936.465,373.4l58.826-71.152a3.681,3.681,0,0,1,2.763-1.375,3.962,3.962,0,0,1,2.825.845l50.546,41.79a3.614,3.614,0,0,1,1.281,2.55,3.846,3.846,0,0,1-.911,2.9l-58.827,71.152,19.156,15.838,59.359-71.8a26.685,26.685,0,0,0,6.02-13.18,29.435,29.435,0,0,0-1.353-14.262,26.306,26.306,0,0,0-8.244-11.829L1994.5,264.2l-77.192,93.367Z" transform="translate(-121.477 -16.744)" fill="#fff"/>
        <path id="Path_15063" data-name="Path 15063" d="M2039.853,445.237a30.265,30.265,0,0,0-.425,14.394,26.27,26.27,0,0,0,6.649,12.792l47.878,51.314-13.745,12.825a3.851,3.851,0,0,1-2.845,1.084,3.615,3.615,0,0,1-2.621-1.126l-50.3-53.911-18.327,17.1,50.869,54.521a27.533,27.533,0,0,0,26.613,8.165,27.85,27.85,0,0,0,12.8-6.946l82.622-77.087a27.281,27.281,0,0,0,7.739-12.218,28.533,28.533,0,0,0,.567-14.242,26.666,26.666,0,0,0-6.792-12.944l-45.88-49.177a26.308,26.308,0,0,0-12.3-7.519,30.313,30.313,0,0,0-14.39-.573,26.119,26.119,0,0,0-12.867,6.722l-47.65,44.456a26.113,26.113,0,0,0-7.6,12.372m25.163,5.232,46.427-43.316a3.924,3.924,0,0,1,5.61.194l44.74,47.955a3.606,3.606,0,0,1,.941,2.693,3.841,3.841,0,0,1-1.278,2.762l-46.428,43.318a3.834,3.834,0,0,1-2.846,1.084,3.6,3.6,0,0,1-2.62-1.126l-44.742-47.955a3.924,3.924,0,0,1,.195-5.609" transform="translate(-127.104 -24.149)" fill="#fff"/>
        <path id="Path_15064" data-name="Path 15064" d="M2182.576,606.98a27.992,27.992,0,0,0-3.407,13.992,27.232,27.232,0,0,0,4.19,13.978l49.379,80.223a27.236,27.236,0,0,0,10.59,10.036,28.854,28.854,0,0,0,14.082,3.35,27.211,27.211,0,0,0,14.123-4.154l26.858-16.533a26.689,26.689,0,0,0,9.982-10.681,30.049,30.049,0,0,0,3.35-14.081,26.68,26.68,0,0,0-4.1-14.033l-48.939-79.51a3.659,3.659,0,0,1-.535-2.86,3.4,3.4,0,0,1,1.588-2.2l25.436-15.656a3.581,3.581,0,0,1,5.172,1.232l48.393,78.621a4.04,4.04,0,0,1,.588,2.949,3.509,3.509,0,0,1-1.71,2.4l-7.826,4.816,13.247,21.523,8.539-5.255a27.247,27.247,0,0,0,10.07-10.736A28.883,28.883,0,0,0,2365,650.32a27.224,27.224,0,0,0-4.188-13.977l-49.379-80.223a27.235,27.235,0,0,0-10.591-10.036,28.216,28.216,0,0,0-28.093.982L2245.885,563.6a27.2,27.2,0,0,0-10.035,10.592,29.038,29.038,0,0,0-3.406,13.992,26.637,26.637,0,0,0,4.1,14.032l48.831,79.333a4.061,4.061,0,0,1,.588,2.949,3.287,3.287,0,0,1-1.532,2.292l-25.437,15.657a3.505,3.505,0,0,1-2.915.444,4.022,4.022,0,0,1-2.367-1.854l-48.392-78.621a3.582,3.582,0,0,1,1.231-5.173l7.826-4.817-13.139-21.346-8.538,5.255a27.771,27.771,0,0,0-10.124,10.647" transform="translate(-138.068 -34.396)" fill="#fff"/>
        <path id="Path_15065" data-name="Path 15065" d="M2344.663,727.46l-59.836,25.82a26.1,26.1,0,0,0-11.318,9.092,30.607,30.607,0,0,0-5.286,13.314,26.1,26.1,0,0,0,2,14.38l26.564,61.561a26.48,26.48,0,0,0,9.176,11.51,29.678,29.678,0,0,0,13.273,5.192,26.676,26.676,0,0,0,14.338-2.093l59.836-25.818a26.693,26.693,0,0,0,11.359-9,29.727,29.727,0,0,0,5.329-13.22,26.535,26.535,0,0,0-2.078-14.572l-26.566-61.561a26.131,26.131,0,0,0-9.092-11.318,30.637,30.637,0,0,0-13.314-5.286,26.118,26.118,0,0,0-14.38,2m40.2,85.251a3.926,3.926,0,0,1-2.073,5.216l-58.3,25.157a3.925,3.925,0,0,1-5.216-2.071l-25.9-60.027a3.923,3.923,0,0,1,2.072-5.215l58.3-25.158a3.926,3.926,0,0,1,5.217,2.072Z" transform="translate(-143.693 -45.952)" fill="#fff"/>
        <path id="Path_15066" data-name="Path 15066" d="M2404.454,870.934l-62.639,17.978a26.108,26.108,0,0,0-12.387,7.575,30.617,30.617,0,0,0-6.941,12.531,26.1,26.1,0,0,0,.146,14.518l18.495,64.446a26.5,26.5,0,0,0,7.634,12.586,29.686,29.686,0,0,0,12.5,6.843,26.658,26.658,0,0,0,14.488-.247l62.639-17.977a26.683,26.683,0,0,0,12.415-7.474,29.728,29.728,0,0,0,6.971-12.431,26.516,26.516,0,0,0-.2-14.718l-18.495-64.445a26.15,26.15,0,0,0-7.576-12.385,30.644,30.644,0,0,0-12.531-6.943,26.124,26.124,0,0,0-14.517.146m10.963,26.842,18.034,62.839a3.921,3.921,0,0,1-2.719,4.91L2369.7,983.042a3.922,3.922,0,0,1-4.91-2.72l-18.036-62.839a3.926,3.926,0,0,1,2.722-4.91l61.032-17.516a3.923,3.923,0,0,1,4.91,2.72" transform="translate(-147.088 -55.116)" fill="#fff"/>
        <path id="Path_15067" data-name="Path 15067" d="M2357.081,1060.139l91.266-13.909a3.679,3.679,0,0,1,2.977.815,3.954,3.954,0,0,1,1.545,2.51l9.88,64.837a3.6,3.6,0,0,1-.742,2.754,3.839,3.839,0,0,1-2.615,1.56l-91.266,13.909,3.745,24.572,92.093-14.035a26.674,26.674,0,0,0,13.269-5.825,29.425,29.425,0,0,0,8.489-11.541,26.322,26.322,0,0,0,1.728-14.314l-14.35-94.159-119.762,18.252Z" transform="translate(-149.103 -64.46)" fill="#fff"/>
        <path id="Path_15068" data-name="Path 15068" d="M2346.447,1524.639l110.476,32.252-84.97,37.642,51.63,77.3-110.677-32.311-7.082,24.262,144.361,42.145,8.077-27.669-48.815-72.784,80.365-35.287,8.02-27.468L2353.47,1500.58Z" transform="translate(-146.093 -95.079)" fill="#fff"/>
        <path id="Path_15069" data-name="Path 15069" d="M2389.926,1739.457a26.112,26.112,0,0,0-11.027-9.443l-58.993-27.69a26.109,26.109,0,0,0-14.31-2.447,30.618,30.618,0,0,0-13.475,4.866,26.109,26.109,0,0,0-9.444,11.028L2242.3,1801.8l22.5,10.561,40.023-85.275a3.924,3.924,0,0,1,5.279-1.906l17.4,8.164-41.711,88.868,40.841,19.169a26.683,26.683,0,0,0,14.266,2.542,29.717,29.717,0,0,0,13.431-4.771,26.523,26.523,0,0,0,9.532-11.215l28.487-60.7a26.143,26.143,0,0,0,2.448-14.31,30.652,30.652,0,0,0-4.866-13.474m-20.437,17.981-27.778,59.183a3.925,3.925,0,0,1-5.279,1.906l-19.475-9.142,31.149-66.367,19.475,9.14a3.927,3.927,0,0,1,1.907,5.28" transform="translate(-142.068 -107.695)" fill="#fff"/>
        <path id="Path_15070" data-name="Path 15070" d="M2239.812,1835.081a29.368,29.368,0,0,0-13.917,3.4,26.632,26.632,0,0,0-10.621,10.044l-23.526,38.741,21.244,12.9,23.093-38.026a3.924,3.924,0,0,1,5.452-1.333l57.664,35.019-25.153,41.419,21.245,12.9,25.154-41.418,32.313,19.624,12.9-21.246-111.937-67.979a26.674,26.674,0,0,0-13.913-4.05" transform="translate(-138.865 -116.273)" fill="#fff"/>
        <path id="Path_15071" data-name="Path 15071" d="M2197.655,2038.827a3.926,3.926,0,0,1-5.566.728l-15.234-11.714,59.836-77.825-35.767-27.5a26.677,26.677,0,0,0-13.386-5.55,29.38,29.38,0,0,0-14.205,1.856,26.628,26.628,0,0,0-11.656,8.823l-57.927,75.341,73.852,56.781a26.689,26.689,0,0,0,13.386,5.55,29.711,29.711,0,0,0,14.142-1.774,26.531,26.531,0,0,0,11.721-8.9l57.926-75.344-19.7-15.149Zm-59.051-40.395,42.268-54.974a3.922,3.922,0,0,1,5.565-.727l17.055,13.113-44.686,58.121Z" transform="translate(-133.29 -121.448)" fill="#fff"/>
        <path id="Path_15072" data-name="Path 15072" d="M2033.955,2078.838l37.657,133.242,20.473-20.291-29.091-100.268,100,29.988,20.473-20.292-132.6-39.141Z" transform="translate(-128.868 -130.654)" fill="#fff"/>
        <path id="Path_15073" data-name="Path 15073" d="M2030.685,2205.46l-39.266-52.01a26.1,26.1,0,0,0-11.516-8.841,30.617,30.617,0,0,0-14.188-1.981,26.111,26.111,0,0,0-13.5,5.348l-75.847,57.263,14.976,19.836,75.181-56.759a3.925,3.925,0,0,1,5.558.777l11.579,15.336-78.349,59.149,27.184,36.008a26.685,26.685,0,0,0,11.433,8.9,29.72,29.72,0,0,0,14.1,2.043,26.505,26.505,0,0,0,13.664-5.474l53.51-40.4a26.134,26.134,0,0,0,8.842-11.516,30.657,30.657,0,0,0,1.981-14.189,26.129,26.129,0,0,0-5.348-13.5m-19.559,17.253a3.832,3.832,0,0,1-1.559,2.615l-52.177,39.392a3.922,3.922,0,0,1-5.559-.776l-12.962-17.172,58.511-44.173,12.963,17.17a3.838,3.838,0,0,1,.782,2.944" transform="translate(-118.883 -135.749)" fill="#fff"/>
        <path id="Path_15074" data-name="Path 15074" d="M1860.056,2217.585l-21.407,12.631,46.914,79.512a3.924,3.924,0,0,1-1.4,5.434l-57.385,33.86,12.631,21.408,58.1-34.285a26.29,26.29,0,0,0,10-10.387,30.3,30.3,0,0,0,3.667-13.926,26.11,26.11,0,0,0-3.783-14.016Z" transform="translate(-115.741 -140.507)" fill="#fff"/>
        <path id="Path_15075" data-name="Path 15075" d="M1790.025,2344.418a26.11,26.11,0,0,0-9.192-11.235,30.611,30.611,0,0,0-13.361-5.17,26.108,26.108,0,0,0-14.362,2.125l-60.558,26.772a3.849,3.849,0,0,1-3.043.09,3.611,3.611,0,0,1-2.106-1.923l-6.25-14.138a3.923,3.923,0,0,1,2.025-5.233l59.794-26.434a3.923,3.923,0,0,1,5.235,2.025l1.266,2.864,22.733-10.05-1.6-3.63a26.108,26.108,0,0,0-9.193-11.236,30.611,30.611,0,0,0-13.361-5.17,26.092,26.092,0,0,0-14.362,2.124l-61.323,27.11a26.494,26.494,0,0,0-11.428,9.278,30.67,30.67,0,0,0-5.169,13.361,26.132,26.132,0,0,0,2.125,14.362l6.925,15.665a26.153,26.153,0,0,0,9.193,11.238,30.657,30.657,0,0,0,13.361,5.167,26.505,26.505,0,0,0,14.553-2.207l60.559-26.773a3.821,3.821,0,0,1,3.043-.089,3.586,3.586,0,0,1,2.106,1.924l6.25,14.136a3.925,3.925,0,0,1-2.025,5.235l-59.794,26.434a3.92,3.92,0,0,1-5.234-2.025l-1.267-2.866-22.924,10.135,1.605,3.629a26.138,26.138,0,0,0,9.192,11.237,30.656,30.656,0,0,0,13.361,5.169,26.517,26.517,0,0,0,14.553-2.209L1782.668,2397a26.148,26.148,0,0,0,11.238-9.194,30.663,30.663,0,0,0,5.168-13.36,26.119,26.119,0,0,0-2.125-14.363Z" transform="translate(-104.891 -144.705)" fill="#fff"/>
        <path id="Path_15076" data-name="Path 15076" d="M1634.907,2358.827a26.108,26.108,0,0,0-7.679-12.321,30.608,30.608,0,0,0-12.59-6.836,26.113,26.113,0,0,0-14.515.27L1509,2366.931l7.059,23.834,90.322-26.755a3.922,3.922,0,0,1,4.932,2.678l5.459,18.424-94.128,27.881,12.813,43.26a26.692,26.692,0,0,0,7.58,12.35,29.715,29.715,0,0,0,12.49,6.866,26.533,26.533,0,0,0,14.716-.329l64.286-19.042a26.137,26.137,0,0,0,12.321-7.68,30.646,30.646,0,0,0,6.837-12.59,26.125,26.125,0,0,0-.27-14.515Zm-5.861,71.772a3.833,3.833,0,0,1-2.377,1.9l-62.685,18.568a3.924,3.924,0,0,1-4.932-2.678l-6.11-20.628,70.295-20.822,6.11,20.628a3.832,3.832,0,0,1-.3,3.029" transform="translate(-95.608 -148.185)" fill="#fff"/>
        <path id="Path_15077" data-name="Path 15077" d="M1149.923,2397.015a27.77,27.77,0,0,0-13.558-5.662l-120.633-16.616-3.449,25.036,116.288,16.018a7.547,7.547,0,0,1,5.109,2.707,6.992,6.992,0,0,1,1.342,5.561l-11.627,84.423a7,7,0,0,1-2.8,4.991,7.56,7.56,0,0,1-5.65,1.224l-116.288-16.017-3.449,25.036,120.633,16.616a28.016,28.016,0,0,0,31.782-24.087l12.824-93.113a28.02,28.02,0,0,0-10.529-26.119" transform="translate(-63.055 -150.464)" fill="#fff"/>
        <path id="Path_15078" data-name="Path 15078" d="M985.275,2381.082a30.619,30.619,0,0,0-6.92-12.544,26.1,26.1,0,0,0-12.372-7.6l-64.412-18.612a26.482,26.482,0,0,0-14.717-.23,29.694,29.694,0,0,0-12.444,6.95,26.671,26.671,0,0,0-7.5,12.4l-18.09,62.607a26.677,26.677,0,0,0-.273,14.487,29.722,29.722,0,0,0,6.82,12.516,26.526,26.526,0,0,0,12.573,7.656l64.413,18.612a26.145,26.145,0,0,0,14.517.171,30.636,30.636,0,0,0,12.543-6.92,26.114,26.114,0,0,0,7.6-12.372L985.1,2395.6a26.1,26.1,0,0,0,.172-14.517m-24.283,8.419-17.626,61a3.921,3.921,0,0,1-4.914,2.711l-62.808-18.147a3.925,3.925,0,0,1-2.711-4.915l17.627-61a3.923,3.923,0,0,1,4.914-2.711l62.807,18.147a3.925,3.925,0,0,1,2.712,4.915" transform="translate(-53.707 -148.337)" fill="#fff"/>
        <path id="Path_15079" data-name="Path 15079" d="M824.22,2314.947l-39.392,83.5a3.832,3.832,0,0,1-2.242,2.06,3.612,3.612,0,0,1-2.851-.075l-40.8-19.251a3.511,3.511,0,0,1-1.965-2.2,4.041,4.041,0,0,1,.258-3l39.393-83.495L753.759,2281.7,714.367,2365.2a3.832,3.832,0,0,1-2.242,2.06,3.6,3.6,0,0,1-2.851-.075l-40.614-19.161a3.924,3.924,0,0,1-1.9-5.283l39.392-83.495-22.479-10.606-39.749,84.25a26.674,26.674,0,0,0-2.57,14.261,29.7,29.7,0,0,0,4.744,13.439,26.521,26.521,0,0,0,11.2,9.556l137.9,65.06,51.691-109.563Z" transform="translate(-40.627 -142.475)" fill="#fff"/>
        <rect id="Rectangle_824" data-name="Rectangle 824" width="121.145" height="24.856" transform="translate(544.312 2183.52) rotate(-58.217)" fill="#fff"/>
        <rect id="Rectangle_825" data-name="Rectangle 825" width="25.065" height="24.855" transform="matrix(0.527, -0.85, 0.85, 0.527, 523.409, 2217.255)" fill="#fff"/>
        <path id="Path_15080" data-name="Path 15080" d="M599.638,2191.233l-55.429,73.829a3.682,3.682,0,0,1-2.7,1.5,3.96,3.96,0,0,1-2.86-.712L486.2,2226.476a3.612,3.612,0,0,1-1.4-2.486,3.85,3.85,0,0,1,.775-2.946l55.429-73.829-19.876-14.924-55.932,74.5a26.685,26.685,0,0,0-5.4,13.448,29.428,29.428,0,0,0,2.019,14.183,26.3,26.3,0,0,0,8.788,11.431l76.168,57.185,72.736-96.879Z" transform="translate(-29.122 -135.103)" fill="#fff"/>
        <path id="Path_15081" data-name="Path 15081" d="M491.565,2123.533a30.276,30.276,0,0,0-.248-14.4,26.258,26.258,0,0,0-7.24-12.466l-50.224-49.02,13.132-13.455a3.836,3.836,0,0,1,2.791-1.213,3.608,3.608,0,0,1,2.671,1l52.763,51.5,17.507-17.937-53.361-52.085a27.534,27.534,0,0,0-26.966-6.911,27.86,27.86,0,0,0-12.464,7.535L351,2096.949a27.3,27.3,0,0,0-7.16,12.567,28.548,28.548,0,0,0,.1,14.253,26.678,26.678,0,0,0,7.391,12.614l48.129,46.978A26.3,26.3,0,0,0,412.1,2190.3a30.271,30.271,0,0,0,14.4-.1,26.123,26.123,0,0,0,12.541-7.315l45.519-46.636a26.1,26.1,0,0,0,7.01-12.713m-25.38-4.05-44.353,45.44a3.923,3.923,0,0,1-5.611.067l-46.934-45.81a3.62,3.62,0,0,1-1.066-2.646,3.839,3.839,0,0,1,1.147-2.82l44.352-45.441a3.833,3.833,0,0,1,2.792-1.214,3.6,3.6,0,0,1,2.67,1l46.934,45.811a3.922,3.922,0,0,1,.068,5.611" transform="translate(-21.731 -127.196)" fill="#fff"/>
        <path id="Path_15082" data-name="Path 15082" d="M341.079,1968.424a27.986,27.986,0,0,0,2.745-14.138,27.231,27.231,0,0,0-4.841-13.764l-53.094-77.814a27.242,27.242,0,0,0-11.051-9.528,28.852,28.852,0,0,0-14.222-2.685,27.213,27.213,0,0,0-13.911,4.812l-26.053,17.777a26.69,26.69,0,0,0-9.469,11.139,30.052,30.052,0,0,0-2.686,14.222,26.7,26.7,0,0,0,4.754,13.825l52.622,77.123a3.664,3.664,0,0,1,.668,2.831,3.413,3.413,0,0,1-1.482,2.276l-24.673,16.834a3.582,3.582,0,0,1-5.225-.987l-52.033-76.26a4.047,4.047,0,0,1-.727-2.918,3.514,3.514,0,0,1,1.6-2.48l7.591-5.18-14.244-20.877-8.281,5.651a27.218,27.218,0,0,0-9.555,11.2,28.887,28.887,0,0,0-2.686,14.223,27.253,27.253,0,0,0,4.841,13.766l53.094,77.813a27.2,27.2,0,0,0,11.051,9.528,28.216,28.216,0,0,0,28.015-2.3l26.053-17.776a27.211,27.211,0,0,0,9.528-11.051,29.069,29.069,0,0,0,2.745-14.138,26.648,26.648,0,0,0-4.754-13.823l-52.5-76.952a4.044,4.044,0,0,1-.726-2.918,3.279,3.279,0,0,1,1.423-2.361l24.672-16.835a3.5,3.5,0,0,1,2.89-.581,4.029,4.029,0,0,1,2.452,1.74l52.033,76.261a3.581,3.581,0,0,1-.987,5.225l-7.591,5.179,14.127,20.705,8.281-5.652a27.762,27.762,0,0,0,9.614-11.11" transform="translate(-9.932 -117.245)" fill="#fff"/>
        <path id="Path_15083" data-name="Path 15083" d="M176.505,1858.5l58.547-28.619a26.1,26.1,0,0,0,10.876-9.618,30.6,30.6,0,0,0,4.651-13.548,26.1,26.1,0,0,0-2.673-14.271l-29.445-60.236a26.479,26.479,0,0,0-9.708-11.063,29.657,29.657,0,0,0-13.5-4.558,26.674,26.674,0,0,0-14.223,2.768l-58.548,28.619a26.655,26.655,0,0,0-10.921,9.524,29.714,29.714,0,0,0-4.7,13.455,26.528,26.528,0,0,0,2.766,14.458l29.445,60.235a26.134,26.134,0,0,0,9.616,10.876,30.643,30.643,0,0,0,13.549,4.652,26.117,26.117,0,0,0,14.271-2.673m-15.473-24.521-28.711-58.734a3.924,3.924,0,0,1,1.823-5.309l57.046-27.885a3.923,3.923,0,0,1,5.308,1.823l28.711,58.735a3.925,3.925,0,0,1-1.823,5.309l-57.046,27.884a3.923,3.923,0,0,1-5.308-1.823" transform="translate(-6.763 -108.759)" fill="#fff"/>
        <path id="Path_15084" data-name="Path 15084" d="M172.047,1697.375a26.115,26.115,0,0,0,12.013-8.153,30.618,30.618,0,0,0,6.34-12.845,26.11,26.11,0,0,0-.834-14.495l-21.529-63.5a26.483,26.483,0,0,0-8.22-12.211,29.69,29.69,0,0,0-12.813-6.242,26.668,26.668,0,0,0-14.46.933l-61.717,20.925a26.679,26.679,0,0,0-12.046,8.054,29.714,29.714,0,0,0-6.375,12.748,26.516,26.516,0,0,0,.9,14.691l21.528,63.5a26.127,26.127,0,0,0,8.153,12.012,30.646,30.646,0,0,0,12.847,6.342,26.1,26.1,0,0,0,14.494-.835ZM100.1,1694.31a3.837,3.837,0,0,1-1.993-2.3l-20.992-61.916a3.924,3.924,0,0,1,2.484-5.033l60.134-20.388a3.924,3.924,0,0,1,5.034,2.484l20.992,61.916a3.924,3.924,0,0,1-2.485,5.033l-60.134,20.388a3.834,3.834,0,0,1-3.039-.183" transform="translate(-3.279 -100.069)" fill="#fff"/>
        <path id="Path_15085" data-name="Path 15085" d="M148.866,1526.928l-90.509,18.2a3.687,3.687,0,0,1-3.012-.673,3.961,3.961,0,0,1-1.661-2.436l-12.932-64.3a3.616,3.616,0,0,1,.613-2.786,3.843,3.843,0,0,1,2.538-1.682l90.508-18.2-4.9-24.369-91.328,18.368A26.679,26.679,0,0,0,25.2,1455.5a29.436,29.436,0,0,0-7.934,11.928,26.3,26.3,0,0,0-1.049,14.379L35,1575.182,153.767,1551.3Z" transform="translate(-0.993 -90.651)" fill="#fff"/>
        <path id="Path_15086" data-name="Path 15086" d="M1257.136,86.955,1292.227,75.9,1282,43.85l-35.091,11.605V18.706h-33.157V55.731L1178.664,43.85,1168.717,75.9l35.09,11.053-21.828,30.117,26.8,19.066,21.552-29.566,22.1,29.566,26.527-19.342Z" transform="translate(-74.048 -1.19)" fill="#fff"/>
        <path id="Path_15087" data-name="Path 15087" d="M2461.667,1285.058H2428.51v37.026l-35.092-11.881-9.947,32.052,35.09,11.052-21.827,30.119,26.8,19.064,21.552-29.565,22.1,29.565,26.527-19.34-21.828-29.843,35.091-11.052-10.224-32.052-35.091,11.6Z" transform="translate(-151.013 -81.424)" fill="#fff"/>
        <path id="Path_15088" data-name="Path 15088" d="M1396.581,2434.321l-35.091,11.6v-36.749h-33.157V2446.2l-35.091-11.881-9.947,32.052,35.091,11.053-21.828,30.116,26.8,19.065,21.552-29.565,22.1,29.565,26.526-19.342-21.828-29.84,35.091-11.053Z" transform="translate(-81.307 -152.646)" fill="#fff"/>
        <path id="Path_15089" data-name="Path 15089" d="M40.065,1264.49l21.552-29.565,22.1,29.565,26.527-19.341-21.828-29.842,35.091-11.052L113.287,1172.2l-35.091,11.6v-36.749H45.039v37.026L9.948,1172.2,0,1204.255l35.09,11.052-21.827,30.119Z" transform="translate(0 -72.68)" fill="#fff"/>
      </g>
    </g>
  </g>
</svg>
