<svg xmlns="http://www.w3.org/2000/svg" xmlns:xlink="http://www.w3.org/1999/xlink" id="Group_1587" data-name="Group 1587" width="218" height="218" viewBox="0 0 218 218">
  <style>
      #Group_1587{
          -webkit-animation: rotating 15s linear infinite;
  -moz-animation: rotating 15s linear infinite;
  -ms-animation: rotating 15s linear infinite;
  -o-animation: rotating 15s linear infinite;
  animation: rotating 15s linear infinite;
      }
      @keyframes rotating {
  from {
    -ms-transform: rotate(0deg);
    -moz-transform: rotate(0deg);
    -webkit-transform: rotate(0deg);
    -o-transform: rotate(0deg);
    transform: rotate(0deg);
  }
  to {
    -ms-transform: rotate(360deg);
    -moz-transform: rotate(360deg);
    -webkit-transform: rotate(360deg);
    -o-transform: rotate(360deg);
    transform: rotate(360deg);
  }
}
  </style>
    <defs>
    <clipPath id="clip-path">
      <rect id="Rectangle_834" data-name="Rectangle 834" width="218" height="218" fill="none"/>
    </clipPath>
  </defs>
  <g id="Group_1541" data-name="Group 1541" clip-path="url(#clip-path)">
    <path id="Path_15090" data-name="Path 15090" d="M20.424,58.957a3.5,3.5,0,0,1-2.716,2.236,3.5,3.5,0,0,1-1.831-.182L4.855,56.9a3.491,3.491,0,0,1-2.25-2.7,3.421,3.421,0,0,1,.183-1.819L8.141,38.191l2.964,1.1L5.945,52.977a.936.936,0,0,0-.007.722.875.875,0,0,0,.533.476L16.464,57.9a.892.892,0,0,0,.718-.011.957.957,0,0,0,.471-.546l5.161-13.684,2.962,1.105Z" transform="translate(1.623 23.875)" fill="#fff"/>
    <path id="Path_15091" data-name="Path 15091" d="M23.427,47.987,7.642,37.727,9.36,35.116,22.5,43.654,31.086,30.6l2.649,1.721Z" transform="translate(4.852 19.127)" fill="#fff"/>
    <path id="Path_23995" data-name="Path 23995" d="M0,0,3.1.009l.056,18.785-3.1-.009Z" transform="matrix(0.656, -0.755, 0.755, 0.656, 25.269, 38.952)" fill="#fff"/>
    <path id="Path_15092" data-name="Path 15092" d="M32.951,36.809a3.524,3.524,0,0,1-4.982-.356l-7.707-8.842a3.477,3.477,0,0,1-.809-1.643,3.479,3.479,0,0,1,1.167-3.309l11.526-9.925,2.071,2.376L23.108,24.679a.934.934,0,0,0-.35.629.863.863,0,0,0,.237.671L29.984,34a.886.886,0,0,0,.633.332.947.947,0,0,0,.677-.258l11.112-9.566,2.073,2.378Z" transform="translate(12.311 7.961)" fill="#fff"/>
    <path id="Path_15093" data-name="Path 15093" d="M39.116,30.456l-8.889-16.5,2.791-1.485,3.69,6.853,4.244-2.257,2.1-9.935,3.114-1.658.356.663-2.325,11,10.5,4.175.358.665-3.113,1.658-9.481-3.774-4.243,2.259,3.692,6.853Z" transform="translate(19.191 3.42)" fill="#fff"/>
    <path id="Path_15094" data-name="Path 15094" d="M63.243,19.821,61.5,4.343l-7.8.866L53.35,2.083,72.067,0l.352,3.127-7.772.865L66.39,19.47Z" transform="translate(33.872 0)" fill="#fff"/>
    <path id="Path_15095" data-name="Path 15095" d="M70.057,18.844a3.522,3.522,0,0,1-1.722-.65,3.468,3.468,0,0,1-1.14-1.4,3.433,3.433,0,0,1-.284-1.807L68.137,3.35A3.512,3.512,0,0,1,72.019.223L83.724,1.442a3.432,3.432,0,0,1,1.708.648,3.616,3.616,0,0,1,1.141,1.4,3.366,3.366,0,0,1,.3,1.809L85.644,16.936a3.39,3.39,0,0,1-.667,1.71,3.618,3.618,0,0,1-1.408,1.134,3.452,3.452,0,0,1-1.807.283Zm.407-3.122,11.5,1.2a.5.5,0,0,0,.366-.091.441.441,0,0,0,.178-.322l1.2-11.431a.439.439,0,0,0-.108-.351.517.517,0,0,0-.338-.164l-11.5-1.2a.469.469,0,0,0-.338.094.432.432,0,0,0-.18.322l-1.2,11.431a.421.421,0,0,0,.108.349.467.467,0,0,0,.311.164" transform="translate(42.469 0.126)" fill="#fff"/>
    <path id="Path_15096" data-name="Path 15096" d="M90.5,23.2a3.4,3.4,0,0,1-1.328-1.251,3.5,3.5,0,0,1-.067-3.5l.6-1.1,2.758,1.489-.549,1.006a.45.45,0,0,0-.047.359.458.458,0,0,0,.235.276l10.161,5.487a.5.5,0,0,0,.373.052.434.434,0,0,0,.289-.228l1.784-3.268a.4.4,0,0,0,.025-.341.51.51,0,0,0-.247-.283L94.236,16.366a3.33,3.33,0,0,1-1.319-1.259,3.585,3.585,0,0,1-.5-1.723,3.356,3.356,0,0,1,.428-1.767l1.885-3.45a3.464,3.464,0,0,1,1.262-1.329,3.542,3.542,0,0,1,1.728-.518,3.424,3.424,0,0,1,1.776.427l10.367,5.6a3.4,3.4,0,0,1,1.326,1.25,3.571,3.571,0,0,1,.515,1.728,3.364,3.364,0,0,1-.423,1.783l-.6,1.1L107.9,16.7l.549-1a.439.439,0,0,0,.034-.366.5.5,0,0,0-.247-.283L98.075,9.559a.475.475,0,0,0-.363-.047.46.46,0,0,0-.276.236l-1.787,3.267a.424.424,0,0,0-.034.336.454.454,0,0,0,.235.276l10.277,5.548a3.344,3.344,0,0,1,1.319,1.261,3.725,3.725,0,0,1,.515,1.728,3.339,3.339,0,0,1-.417,1.771l-1.885,3.45a3.417,3.417,0,0,1-1.277,1.325,3.639,3.639,0,0,1-1.736.512,3.422,3.422,0,0,1-1.777-.427Z" transform="translate(56.298 3.949)" fill="#fff"/>
    <path id="Path_15097" data-name="Path 15097" d="M102.148,32.081l10.275-11.758L106.5,15.207l2.076-2.376,14.217,12.28-2.076,2.376-5.9-5.1L104.536,34.145Z" transform="translate(64.854 8.022)" fill="#fff"/>
    <path id="Path_15098" data-name="Path 15098" d="M119.951,24.251a3.522,3.522,0,0,1,4.939.73l7.007,9.4a3.366,3.366,0,0,1,.672,1.689,3.547,3.547,0,0,1-.266,1.783,3.389,3.389,0,0,1-1.14,1.438l-12.3,9.057-1.885-2.529L122.175,42l-7.458-10.009-5.192,3.824-1.869-2.506ZM124.7,40.139l4.5-3.312a.436.436,0,0,0,.186-.315.494.494,0,0,0-.1-.359l-6.883-9.236a.477.477,0,0,0-.3-.184.435.435,0,0,0-.358.086l-4.5,3.314Z" transform="translate(68.351 14.723)" fill="#fff"/>
    <path id="Path_15099" data-name="Path 15099" d="M115.134,42.753l17.26-7.429,6.08,13.958a3.319,3.319,0,0,1,.257,1.8,3.7,3.7,0,0,1-.667,1.674,3.329,3.329,0,0,1-1.427,1.139l-4.753,2.046a3.387,3.387,0,0,1-1.8.25,3.611,3.611,0,0,1-1.686-.663,3.426,3.426,0,0,1-1.135-1.425l-4.854-11.085-6.026,2.592Zm6.049,13.889,4.04-8,1.632,3.746-3.6,7.186-.672.289Zm4.339-14.449,4.594,10.547a.5.5,0,0,0,.26.27.441.441,0,0,0,.368,0l4.561-1.963a.442.442,0,0,0,.244-.26.477.477,0,0,0-.008-.379l-4.594-10.547a.445.445,0,0,0-.262-.241.457.457,0,0,0-.358,0l-4.561,1.963a.441.441,0,0,0-.253.265.472.472,0,0,0,.01.351" transform="translate(73.099 22.083)" fill="#fff"/>
    <path id="Path_15100" data-name="Path 15100" d="M120.763,59.991l15.388-2.932L134.674,49.4l3.108-.592L141.327,67.2l-3.108.592-1.473-7.635-15.388,2.929Z" transform="translate(76.673 30.512)" fill="#fff"/>
    <rect id="Rectangle_831" data-name="Rectangle 831" width="10.506" height="3.117" transform="translate(204.948 120.829) rotate(-86.174)" fill="#fff"/>
    <path id="Path_15101" data-name="Path 15101" d="M121.989,82.8a3.517,3.517,0,0,1,4.493-2.168l11.124,3.827a3.478,3.478,0,0,1,2.183,4.466l-4.99,14.324-2.99-1.029,4.808-13.809a.934.934,0,0,0-.013-.72.862.862,0,0,0-.544-.462l-10.084-3.471a.885.885,0,0,0-.716.028.942.942,0,0,0-.458.559l-4.81,13.809L117,97.128Z" transform="translate(74.285 50.284)" fill="#fff"/>
    <path id="Path_15102" data-name="Path 15102" d="M120.327,91.676l16.038,9.868-1.653,2.652-13.346-8.212-8.261,13.266-2.691-1.656Z" transform="translate(70.103 57.312)" fill="#fff"/>
    <path id="Path_23996" data-name="Path 23996" d="M0,0,3.1.009,3.157,18.8l-3.1-.009Z" transform="translate(177.638 167.533) rotate(-50.42)" fill="#fff"/>
    <path id="Path_15103" data-name="Path 15103" d="M110.81,106.039a3.522,3.522,0,0,1,4.988.234l7.923,8.654a3.473,3.473,0,0,1-.234,4.958l-11.279,10.2-2.129-2.327,10.87-9.837a.939.939,0,0,0,.337-.637.867.867,0,0,0-.255-.665l-7.185-7.846a.887.887,0,0,0-.641-.317.948.948,0,0,0-.67.273l-10.874,9.837-2.129-2.327Z" transform="translate(63.193 65.713)" fill="#fff"/>
    <path id="Path_15104" data-name="Path 15104" d="M104.729,112.573l9.3,16.281-2.752,1.554-3.862-6.762-4.187,2.365-1.846,9.983-3.07,1.734-.374-.657,2.047-11.054-10.6-3.913-.373-.655,3.07-1.734,9.571,3.536,4.187-2.363-3.865-6.761Z" transform="translate(56.515 70.375)" fill="#fff"/>
    <path id="Path_15105" data-name="Path 15105" d="M78.526,121.813l2.135,15.431,7.776-1.063.43,3.117-18.659,2.55-.432-3.117,7.749-1.058L75.39,122.242Z" transform="translate(44.301 76.152)" fill="#fff"/>
    <path id="Path_15106" data-name="Path 15106" d="M72.1,122.932a3.509,3.509,0,0,1,2.912,1.979,3.431,3.431,0,0,1,.329,1.8l-.935,11.664a3.491,3.491,0,0,1-1.99,2.894,3.508,3.508,0,0,1-1.811.327l-11.734-.93a3.418,3.418,0,0,1-1.722-.606,3.6,3.6,0,0,1-1.177-1.37,3.387,3.387,0,0,1-.34-1.8l.934-11.664a3.372,3.372,0,0,1,.625-1.724,3.591,3.591,0,0,1,1.38-1.168,3.409,3.409,0,0,1,1.8-.327Zm-.329,3.13-11.526-.913a.514.514,0,0,0-.361.1.437.437,0,0,0-.172.327L58.8,137.033a.437.437,0,0,0,.116.349.506.506,0,0,0,.342.156l11.526.913a.483.483,0,0,0,.335-.1.438.438,0,0,0,.17-.327l.919-11.456a.43.43,0,0,0-.118-.349.467.467,0,0,0-.314-.156" transform="translate(35.317 76.263)" fill="#fff"/>
    <path id="Path_15107" data-name="Path 15107" d="M52.778,120.27a3.407,3.407,0,0,1,1.357,1.216,3.488,3.488,0,0,1,.157,3.5l-.572,1.112-2.8-1.42.526-1.019a.459.459,0,0,0,.038-.359.453.453,0,0,0-.244-.27l-10.3-5.231a.515.515,0,0,0-.374-.046.448.448,0,0,0-.283.237l-1.7,3.31a.417.417,0,0,0-.015.343.517.517,0,0,0,.257.276l10.387,5.279a3.318,3.318,0,0,1,1.352,1.227,3.572,3.572,0,0,1,.546,1.708,3.365,3.365,0,0,1-.384,1.776l-1.8,3.5A3.461,3.461,0,0,1,47.7,136.76a3.52,3.52,0,0,1-1.712.562,3.419,3.419,0,0,1-1.787-.382L33.7,131.6a3.411,3.411,0,0,1-1.359-1.216,3.6,3.6,0,0,1-.557-1.715,3.385,3.385,0,0,1,.379-1.794l.571-1.11,2.82,1.432-.525,1.019a.431.431,0,0,0-.026.366.5.5,0,0,0,.253.275l10.3,5.233a.464.464,0,0,0,.363.037.458.458,0,0,0,.271-.242l1.7-3.31a.423.423,0,0,0,.025-.336.445.445,0,0,0-.242-.27l-10.411-5.292a3.329,3.329,0,0,1-1.352-1.227,3.708,3.708,0,0,1-.558-1.715,3.315,3.315,0,0,1,.371-1.781l1.8-3.5a3.41,3.41,0,0,1,1.241-1.355,3.632,3.632,0,0,1,1.723-.554,3.437,3.437,0,0,1,1.787.384Z" transform="translate(20.175 71.607)" fill="#fff"/>
    <path id="Path_15108" data-name="Path 15108" d="M40.041,111.2,30.068,123.21l6.054,4.965L34.106,130.6,19.579,118.683l2.016-2.426,6.033,4.949L37.6,109.194Z" transform="translate(12.431 68.263)" fill="#fff"/>
    <path id="Path_15109" data-name="Path 15109" d="M24.079,120.691a3.522,3.522,0,0,1-4.957-.609l-7.238-9.228a3.377,3.377,0,0,1-.714-1.672,3.569,3.569,0,0,1,.222-1.788,3.391,3.391,0,0,1,1.105-1.468l12.066-9.354,1.949,2.483L21.416,103l7.705,9.822,5.1-3.949,1.929,2.46Zm-5.139-15.769-4.414,3.421a.435.435,0,0,0-.18.322.5.5,0,0,0,.114.356l7.109,9.065a.487.487,0,0,0,.306.176.435.435,0,0,0,.356-.1l4.414-3.421Z" transform="translate(7.072 60.373)" fill="#fff"/>
    <path id="Path_15110" data-name="Path 15110" d="M27.963,102.026,10.9,109.884l-6.432-13.8a3.3,3.3,0,0,1-.3-1.793A3.74,3.74,0,0,1,4.787,92.6a3.342,3.342,0,0,1,1.4-1.173l4.7-2.165a3.38,3.38,0,0,1,1.792-.3,3.62,3.62,0,0,1,1.7.621,3.392,3.392,0,0,1,1.171,1.4l5.137,10.962L26.644,99.2Zm-10.37.821L12.734,92.418a.5.5,0,0,0-.266-.263.446.446,0,0,0-.369.013L7.587,94.243a.452.452,0,0,0-.235.267.478.478,0,0,0,.016.379l4.861,10.43a.5.5,0,0,0,.626.226l4.509-2.075a.438.438,0,0,0,.249-.271.472.472,0,0,0-.02-.351M21.566,88.3l-3.837,8.1L16,92.69l3.414-7.273.664-.307Z" transform="translate(2.629 53.207)" fill="#fff"/>
    <path id="Path_15111" data-name="Path 15111" d="M20.74,82.693,5.429,86.006,7.1,93.628l-3.092.67L0,76.005l3.093-.67,1.664,7.6,15.309-3.314Z" transform="translate(0 47.097)" fill="#fff"/>
    <rect id="Rectangle_833" data-name="Rectangle 833" width="10.506" height="3.116" transform="translate(8.92 110.091) rotate(-87.652)" fill="#fff"/>
  </g>
</svg>