<?xml version="1.0" standalone="no"?>
<!DOCTYPE svg PUBLIC "-//W3C//DTD SVG 1.1//EN" "http://www.w3.org/Graphics/SVG/1.1/DTD/svg11.dtd" >
<svg xmlns="http://www.w3.org/2000/svg" xmlns:xlink="http://www.w3.org/1999/xlink" version="1.1">
<metadata>
Created by FontForge 20170731 at Thu Jul 22 19:55:47 2021
 By Aleksey,,,
Copyright 2018 The Orbitron Project Authors (https://github.com/theleagueof/orbitron), with Reserved Font Name: "Orbitron".
</metadata>
<defs>
<font id="Orbitron-SemiBold" horiz-adv-x="828" >
  <font-face 
    font-family="Orbitron SemiBold"
    font-weight="600"
    font-stretch="normal"
    units-per-em="1000"
    panose-1="0 0 0 0 0 0 0 0 0 0"
    ascent="800"
    descent="-200"
    x-height="578"
    cap-height="720"
    bbox="-187 -250 1315 981"
    underline-thickness="50"
    underline-position="-175"
    unicode-range="U+0020-E00C"
  />
<missing-glyph horiz-adv-x="500" 
d="M480 0v0l-460 1v719h460v-720zM449 31v0v658h-398v-658h398z" />
    <glyph glyph-name=".notdef" horiz-adv-x="500" 
d="M480 0v0l-460 1v719h460v-720zM449 31v0v658h-398v-658h398z" />
    <glyph glyph-name=".null" horiz-adv-x="0" 
 />
    <glyph glyph-name="nonmarkingreturn" horiz-adv-x="333" 
 />
    <glyph glyph-name="space" unicode=" " horiz-adv-x="298" 
 />
    <glyph glyph-name="exclam" unicode="!" horiz-adv-x="220" 
d="M58 202v0v518h119v-518h-119zM58 0v0v119h119v-119h-119z" />
    <glyph glyph-name="quotedbl" unicode="&#x22;" horiz-adv-x="385" 
d="M216 540v0v173h118v-173h-118zM47 540v0v173h119v-173h-119z" />
    <glyph glyph-name="numbersign" unicode="#" horiz-adv-x="797" 
d="M69 0v0l50 164h-87v120h124l51 159h-145v120h183l52 157h122l-54 -157h196l52 157h121l-54 -157h81v-120h-118l-51 -159h139v-120h-178l-49 -164h-120l50 164h-196l-49 -164h-120zM277 284v0h194l52 159h-195z" />
    <glyph glyph-name="dollar" unicode="$" horiz-adv-x="788" 
d="M333 -106v0v106h-164q-39 0 -69.5 18t-48 49t-17.5 68v46h119v-44q0 -7 5.5 -12.5t12.5 -5.5h161v179h-163q-38 0 -68.5 18.5t-48.5 49t-18 68.5v151q0 38 17.5 68.5t48 48.5t69.5 18h164v106h119v-106h163q38 0 69 -18t48.5 -48.5t17.5 -68.5l-1 -47h-118v44
q0 8 -5.5 13.5t-13.5 5.5h-160v-183h163q38 0 69 -18t48.5 -48.5t17.5 -65.5v-151q0 -37 -17.5 -68t-48.5 -49t-68 -18h-164v-106h-119zM171 418h161v183h-161q-7 0 -12.5 -5.5t-5.5 -12.5v-147q0 -8 5.5 -13t12.5 -5zM452 119v0h161q7 0 12.5 5.5t5.5 13.5v142q0 8 -6 13.5
t-13 5.5h-160v-180z" />
    <glyph glyph-name="percent" unicode="%" horiz-adv-x="966" 
d="M135 0v0v134l685 581l32 5v-133l-682 -580zM177 380q-37 0 -66 17t-46 46.5t-17 65.5v78q0 37 17 66t46 46t66 17h88q37 0 66 -17t46 -46t17 -66v-78q0 -36 -17 -65.5t-46 -46.5t-66 -17h-88v0zM160 476v0h121q8 0 13 5t5 12v110q0 8 -5 13t-13 5h-121q-7 0 -12 -5
t-5 -13v-110q0 -7 5 -12t12 -5zM703 4q-36 0 -65 17t-46 46t-17 66v78q0 37 17 66t46 46t65 17h88q37 0 66 -17t46 -46t17 -66v-78q0 -37 -17 -66t-46 -46t-66 -17h-88v0zM687 99v0h121q7 0 12 5t5 12v112q0 7 -5 12t-12 5h-121q-7 0 -12 -5t-5 -12v-112q0 -7 5 -12t12 -5z
" />
    <glyph glyph-name="ampersand" unicode="&#x26;" horiz-adv-x="938" 
d="M187 0q-37 0 -67 18t-48.5 48t-18.5 68v199q0 22 18.5 44.5t50.5 30.5q-30 29 -30 73v104q0 38 18.5 68t48.5 48t66 18h381q32 0 60 -15t48 -40.5t26 -55.5v-72h-120v44q0 7 -5.5 12.5t-12.5 5.5h-372q-8 0 -13.5 -5.5t-5.5 -12.5v-123l439 -221v116h119v-163l124 -74
v-117l-139 79q-18 -34 -50 -55.5t-69 -21.5h-448zM191 119h381q11 0 21 5t19 12l-405 205l-15 4q-9 0 -14.5 -9.5t-5.5 -33.5v-164q0 -8 5.5 -13.5t13.5 -5.5z" />
    <glyph glyph-name="quotesingle" unicode="'" horiz-adv-x="238" 
d="M59 540v0v173h119v-173h-119z" />
    <glyph glyph-name="parenleft" unicode="(" horiz-adv-x="286" 
d="M186 0q-37 0 -67.5 18.5t-48.5 48.5t-18 67v452q0 37 18 67.5t48.5 48.5t67.5 18h48v-120h-44q-8 0 -13.5 -5.5t-5.5 -12.5v-444q0 -8 5.5 -13.5t13.5 -5.5h44v-119h-48v0z" />
    <glyph glyph-name="parenright" unicode=")" horiz-adv-x="288" 
d="M56 0v0v119h44q7 0 12.5 5.5t5.5 13.5v444q0 7 -5.5 12.5t-12.5 5.5h-44v120h49q36 0 66.5 -18t49 -48.5t18.5 -67.5v-452q0 -37 -18.5 -67t-49 -48.5t-66.5 -18.5h-49z" />
    <glyph glyph-name="asterisk" unicode="*" horiz-adv-x="504" 
d="M170 287v0l-97 69l79 109l-127 40l36 116l127 -43v134h120v-133l127 42l37 -116l-127 -40l79 -108l-96 -70l-80 107z" />
    <glyph glyph-name="plus" unicode="+" horiz-adv-x="445" 
d="M157 93v0v143h-140v119h140v142h120v-142h144v-119h-144v-143h-120z" />
    <glyph glyph-name="comma" unicode="," horiz-adv-x="219" 
d="M54 -132v0v246h119v-113q0 -32 -15.5 -59t-42.5 -47t-61 -27z" />
    <glyph glyph-name="hyphen" unicode="-" horiz-adv-x="517" 
d="M59 236v0v119h404v-119h-404z" />
    <glyph glyph-name="period" unicode="." horiz-adv-x="224" 
d="M54 0v0v119h119v-119h-119z" />
    <glyph glyph-name="slash" unicode="/" horiz-adv-x="521" 
d="M6 0v0v132l479 584l32 4v-130l-478 -585z" />
    <glyph glyph-name="zero" unicode="0" horiz-adv-x="834" 
d="M191 0q-37 0 -67.5 19.5t-48.5 51.5t-18 68v445q0 37 18 68t48.5 49.5t67.5 18.5h448q37 0 67.5 -18.5t48.5 -49.5t18 -68v-445q0 -36 -18 -68t-48.5 -51.5t-67.5 -19.5h-448v0zM224 125v0h412q7 0 12.5 5.5t5.5 12.5v339zM176 241v0l430 357h-411q-8 0 -13.5 -5.5
t-5.5 -12.5v-339z" />
    <glyph glyph-name="one" unicode="1" horiz-adv-x="391" 
d="M228 0v0v554l-69 -85h-158l211 251h136v-720h-120z" />
    <glyph glyph-name="two" unicode="2" horiz-adv-x="830" 
d="M57 0v0v275q0 37 18 67.5t48.5 48t67.5 17.5h445q7 0 12.5 5.5t5.5 13.5v155q0 8 -5.5 13.5t-12.5 5.5h-441q-8 0 -13.5 -5.5t-5.5 -13.5v-44h-119v48q0 38 18 68t48.5 48t67.5 18h448q37 0 67.5 -18t48.5 -48t18 -68v-163q0 -37 -18 -67.5t-48.5 -49t-67.5 -18.5h-444
q-8 0 -13.5 -5t-5.5 -13v-132q0 -8 5.5 -13.5t13.5 -5.5h578v-119h-716z" />
    <glyph glyph-name="three" unicode="3" horiz-adv-x="826" 
d="M188 0q-38 0 -68 18.5t-48.5 48.5t-18.5 67v37h120v-33q0 -8 5.5 -13.5t12.5 -5.5h441q8 0 13.5 5.5t5.5 13.5v149q0 8 -5.5 13t-13.5 5h-452v120h423q7 0 12.5 5.5t5.5 12.5v139q0 8 -5.5 13.5t-12.5 5.5h-412q-7 0 -12.5 -5.5t-5.5 -13.5v-42h-120v46q0 38 18.5 68
t48.5 48t68 18h419q37 0 67.5 -18t48.5 -48t18 -68v-147q0 -12 -2.5 -25t-6.5 -24q19 -21 28.5 -47t9.5 -52v-157q0 -37 -18 -67t-48.5 -48.5t-67.5 -18.5h-448v0z" />
    <glyph glyph-name="four" unicode="4" horiz-adv-x="730" 
d="M471 0v0v182h-465v116l468 422h116v-418h104v-120h-104v-182h-119zM187 302v0h284v240z" />
    <glyph glyph-name="five" unicode="5" horiz-adv-x="830" 
d="M191 0q-37 0 -67.5 18.5t-48.5 48.5t-18 67v43h119v-39q0 -8 5.5 -13.5t13.5 -5.5h441q7 0 12.5 5.5t5.5 13.5v151q0 8 -5.5 13.5t-12.5 5.5h-579v412h716v-119h-578q-8 0 -13.5 -5.5t-5.5 -13.5v-135q0 -8 5.5 -13.5t13.5 -5.5h444q37 0 67.5 -18t48.5 -48.5t18 -67.5
v-160q0 -37 -18 -67t-48.5 -48.5t-67.5 -18.5h-448v0z" />
    <glyph glyph-name="six" unicode="6" horiz-adv-x="820" 
d="M191 0q-37 0 -67.5 18.5t-48.5 48.5t-18 67v452q0 38 18 68t48.5 48t67.5 18h465v-119h-461q-8 0 -13.5 -5.5t-5.5 -13.5v-134q0 -7 5.5 -13t13.5 -6h444q37 0 67.5 -17.5t48.5 -48t18 -67.5v-162q0 -37 -18 -67t-48.5 -48.5t-67.5 -18.5h-448v0zM195 119h441
q7 0 12.5 5.5t5.5 13.5v153q0 7 -5.5 12.5t-12.5 5.5h-460v-171q0 -8 5.5 -13.5t13.5 -5.5z" />
    <glyph glyph-name="seven" unicode="7" horiz-adv-x="660" 
d="M483 0v0v583q0 7 -5.5 12.5t-12.5 5.5h-462v120h466q36 0 66.5 -18t48.5 -48.5t18 -67.5v-587h-119z" />
    <glyph glyph-name="eight" unicode="8" horiz-adv-x="834" 
d="M191 0q-37 0 -67.5 18.5t-48.5 48.5t-18 67v160q0 19 6.5 37.5t16.5 36.5q-10 17 -16.5 36.5t-6.5 38.5v143q0 38 18 68t48.5 48t67.5 18h448q32 0 60 -15t48 -40t26 -55v-167q0 -38 -23 -75q23 -34 23 -74v-160q0 -37 -18 -67t-48.5 -48.5t-67.5 -18.5h-448v0zM195 119
v0h441q7 0 12.5 5.5t5.5 13.5v151q0 8 -5.5 13.5t-12.5 5.5h-441q-8 0 -13.5 -5.5t-5.5 -13.5v-151q0 -8 5.5 -13.5t13.5 -5.5zM195 417v0h441q7 0 12.5 5.5t5.5 13.5v145q0 8 -5.5 13.5t-12.5 5.5h-441q-8 0 -13.5 -5.5t-5.5 -13.5v-145q0 -8 5.5 -13.5t13.5 -5.5z" />
    <glyph glyph-name="nine" unicode="9" 
d="M187 0q-31 0 -58.5 16t-47 42.5t-27.5 60.5h578q7 0 12.5 5.5t5.5 13.5v136q0 7 -5.5 12.5t-12.5 5.5h-445q-37 0 -67.5 18.5t-48.5 49t-18 67.5v159q0 38 18 68t48.5 48t67.5 18h449q36 0 66.5 -18t49 -48t18.5 -68v-452q0 -37 -18.5 -67t-49 -48.5t-66.5 -18.5h-449v0z
M191 412v0h459v170q0 8 -5.5 13.5t-12.5 5.5h-441q-7 0 -12.5 -5.5t-5.5 -13.5v-151q0 -8 5.5 -13.5t12.5 -5.5z" />
    <glyph glyph-name="colon" unicode=":" horiz-adv-x="231" 
d="M54 464v0v120h119v-120h-119zM54 0v0v119h119v-119h-119z" />
    <glyph glyph-name="semicolon" unicode=";" horiz-adv-x="231" 
d="M52 -132v0v246h119v-113q0 -32 -15.5 -59t-42.5 -47t-61 -27zM51 464v0v120h120v-120h-120z" />
    <glyph glyph-name="less" unicode="&#x3c;" horiz-adv-x="473" 
d="M420 -1v0l-415 240v113l415 240v-137l-274 -159l274 -159v-138z" />
    <glyph glyph-name="equal" unicode="=" horiz-adv-x="638" 
d="M59 340v0v120h522v-120h-522zM59 139v0v120h522v-120h-522z" />
    <glyph glyph-name="greater" unicode="&#x3e;" horiz-adv-x="475" 
d="M59 -3v0v138l274 159l-274 158v138l416 -239v-114z" />
    <glyph glyph-name="question" unicode="?" horiz-adv-x="678" 
d="M140 197v0v61q0 38 18 68t48.5 48t66.5 18h250q7 0 12.5 5.5t5.5 12.5v171q0 8 -5.5 13.5t-12.5 5.5h-492v120h495q37 0 67.5 -18.5t49 -48.5t18.5 -68v-179q0 -36 -18.5 -66.5t-49 -49t-67.5 -18.5h-248q-7 0 -12.5 -5.5t-5.5 -12.5v-57h-120zM140 0v0v119h120v-119
h-120z" />
    <glyph glyph-name="at" unicode="@" horiz-adv-x="823" 
d="M188 0q-37 0 -67.5 18.5t-48.5 48.5t-18 67v452q0 37 18 67.5t48.5 48.5t67.5 18h448q37 0 67.5 -18t48.5 -48.5t18 -67.5v-381h-396q-37 0 -65 15.5t-43.5 43t-15.5 64.5v68q0 37 15.5 64.5t43.5 43t65 15.5h77q37 0 65 -15.5t43 -43t15 -64.5v-101h77v287
q0 7 -5.5 12.5t-12.5 5.5h-441q-8 0 -13.5 -5.5t-5.5 -12.5v-444q0 -8 5.5 -13.5t13.5 -5.5h578v-119h-582v0zM353 295h137v121q0 7 -5.5 12.5t-13.5 5.5h-118q-7 0 -12.5 -5.5t-5.5 -12.5v-103q0 -8 5.5 -13t12.5 -5z" />
    <glyph glyph-name="A" unicode="A" horiz-adv-x="836" 
d="M58 0v585q0 37 18 68t49 49t68 18h450q37 0 67.5 -18t49 -49t18.5 -68v-585h-121v247h-479v-247h-120v0zM178 367h479v214q0 8 -5.5 13t-13.5 5h-442q-7 0 -12.5 -5t-5.5 -13v-214v0z" />
    <glyph glyph-name="B" unicode="B" horiz-adv-x="832" 
d="M59 0v720h556q37 0 67.5 -18t49 -49t18.5 -68v-143q0 -14 -2.5 -26.5t-7.5 -23.5q18 -25 28.5 -49.5t10.5 -49.5v-158q0 -37 -18.5 -68t-49 -49t-67.5 -18h-585v0zM197 121h442q8 0 13.5 5t5.5 13v149q0 8 -5.5 13t-13.5 5h-442q-7 0 -12.5 -5t-5.5 -13v-149
q0 -8 5.5 -13t12.5 -5zM197 427h413q8 0 13 5.5t5 12.5v136q0 8 -5 13t-13 5h-413q-7 0 -12.5 -5t-5.5 -13v-136q0 -7 5.5 -12.5t12.5 -5.5z" />
    <glyph glyph-name="C" unicode="C" horiz-adv-x="822" 
d="M191 0q-37 0 -68 18t-49 49t-18 68v450q0 37 18 68t49 49t68 18h583v-121h-562q-16 0 -26 -9.5t-10 -25.5v-408q0 -16 10 -25.5t26 -9.5h562v-121h-583z" />
    <glyph glyph-name="D" unicode="D" horiz-adv-x="834" 
d="M58 0v720h585q37 0 67.5 -18t49 -49t18.5 -68v-450q0 -37 -18.5 -68t-49 -49t-67.5 -18h-585zM196 121h442q8 0 13.5 5t5.5 13v442q0 8 -5.5 13t-13.5 5h-442q-8 0 -13.5 -5t-5.5 -13v-442q0 -8 5.5 -13t13.5 -5z" />
    <glyph glyph-name="E" unicode="E" horiz-adv-x="766" 
d="M58 0v720h661v-121h-540v-178h435v-122h-435v-178h540v-121h-661z" />
    <glyph glyph-name="F" unicode="F" horiz-adv-x="723" 
d="M58 0v720h661v-121h-540v-178h435v-122h-435v-299h-121z" />
    <glyph glyph-name="G" unicode="G" horiz-adv-x="830" 
d="M191 0q-37 0 -68 18t-49 49t-18 68v450q0 37 18 68t49 49t68 18h450q37 0 67.5 -18t49 -49t18.5 -68v-49h-121v45q0 8 -5.5 13t-13.5 5h-442q-7 0 -12.5 -5t-5.5 -13v-442q0 -8 5.5 -13t12.5 -5h442q8 0 13.5 5t5.5 13v141h-166v121h287v-266q0 -37 -18.5 -68t-49 -49
t-67.5 -18h-450z" />
    <glyph glyph-name="H" unicode="H" horiz-adv-x="851" 
d="M57 0v720h120v-299h496v299h120v-720h-120v299h-496v-299h-120z" />
    <glyph glyph-name="I" unicode="I" horiz-adv-x="214" 
d="M48 0v720h119v-720h-119z" />
    <glyph glyph-name="J" unicode="J" horiz-adv-x="780" 
d="M139 0q-37 0 -68 18t-49 49t-18 68v76h120v-72q0 -8 5.5 -13t12.5 -5h442q8 0 13.5 5t5.5 13v581h121v-585q0 -37 -18.5 -68t-49 -49t-67.5 -18h-450z" />
    <glyph glyph-name="K" unicode="K" horiz-adv-x="797" 
d="M57 0v720h121v-299h184l251 299h135v-29l-278 -331l278 -331v-29h-135l-251 299h-184v-299h-121z" />
    <glyph glyph-name="L" unicode="L" horiz-adv-x="779" 
d="M57 0v721h120v-600h600v-121h-720z" />
    <glyph glyph-name="M" unicode="M" horiz-adv-x="928" 
d="M56 0v720h137l270 -322l269 322h138v-720h-121v552l-286 -341l-287 340v-551h-120z" />
    <glyph glyph-name="N" unicode="N" horiz-adv-x="832" 
d="M56 0v720h137l462 -550v550h121v-720h-137l-463 551v-551h-120z" />
    <glyph glyph-name="O" unicode="O" 
d="M189 0q-37 0 -68 18t-49 49t-18 68v450q0 37 18 68t49 49t68 18h450q37 0 67.5 -18t49 -49t18.5 -68v-450q0 -37 -18.5 -68t-49 -49t-67.5 -18h-450zM192 121h442q8 0 13.5 5t5.5 13v442q0 8 -5.5 13t-13.5 5h-442q-7 0 -12.5 -5t-5.5 -13v-442q0 -8 5.5 -13t12.5 -5z
" />
    <glyph glyph-name="P" unicode="P" horiz-adv-x="791" 
d="M56 0v719h585q37 0 67.5 -18.5t49 -49t18.5 -67.5v-198q0 -36 -18.5 -67t-49 -49t-67.5 -18l-465 -1v-251h-120zM194 373h442q8 0 13.5 5t5.5 13v190q0 7 -5.5 12.5t-13.5 5.5h-442q-7 0 -12.5 -5.5t-5.5 -12.5v-190q0 -8 5.5 -13t12.5 -5z" />
    <glyph glyph-name="Q" unicode="Q" horiz-adv-x="884" 
d="M632 0v93l142 47v-19h88v-121h-230zM189 0q-37 0 -68 18t-49 49t-18 68v450q0 37 18 68t49 49t68 18h450q37 0 67.5 -18t49 -49t18.5 -68v-450q0 -37 -18.5 -68t-49 -49t-67.5 -18h-450zM192 121h442q8 0 13.5 5t5.5 13v442q0 8 -5.5 13t-13.5 5h-442q-7 0 -12.5 -5
t-5.5 -13v-442q0 -8 5.5 -13t12.5 -5z" />
    <glyph glyph-name="R" unicode="R" horiz-adv-x="825" 
d="M638 0l-221 264h157l199 -236v-28h-135zM56 0v719h585q37 0 67.5 -18.5t49 -49t18.5 -67.5v-198q0 -36 -18.5 -67t-49 -49t-67.5 -18l-465 -1v-251h-120zM194 373h442q8 0 13.5 5t5.5 13v190q0 7 -5.5 12.5t-13.5 5.5h-442q-7 0 -12.5 -5.5t-5.5 -12.5v-190q0 -8 5.5 -13
t12.5 -5z" />
    <glyph glyph-name="S" unicode="S" horiz-adv-x="825" 
d="M187 0q-37 0 -67.5 18t-48.5 49t-18 68v48h120v-44q0 -8 5 -13t13 -5h442q8 0 13.5 5t5.5 13v143q0 7 -5.5 12t-13.5 5h-446q-37 0 -67.5 18.5t-48.5 49t-18 67.5v151q0 37 18 68t48.5 49t67.5 18h451q37 0 67.5 -18t49 -49t18.5 -68v-48h-121v44q0 8 -5.5 13t-13.5 5
h-442q-8 0 -13 -5t-5 -13v-143q0 -7 5 -12t13 -5h447q37 0 67.5 -18.5t49 -49t18.5 -67.5v-151q0 -37 -18.5 -68t-49 -49t-67.5 -18h-451z" />
    <glyph glyph-name="T" unicode="T" horiz-adv-x="759" 
d="M320 0v0v599h-300v121h720v-121h-299v-599h-121z" />
    <glyph glyph-name="U" unicode="U" 
d="M189 0q-37 0 -68 18t-49 49t-18 68v585h120v-581q0 -8 5.5 -13t12.5 -5h442q8 0 13.5 5t5.5 13v581h121v-585q0 -37 -18.5 -68t-49 -49t-67.5 -18h-450v0z" />
    <glyph glyph-name="V" unicode="V" horiz-adv-x="1003" 
d="M452 0v0l-417 720h140l333 -579l334 579h139l-417 -720h-112z" />
    <glyph glyph-name="W" unicode="W" horiz-adv-x="1179" 
d="M297 0v0l-262 720h128l182 -499l182 499h122l183 -499l182 499h128l-262 -720h-97l-195 535l-195 -535h-96z" />
    <glyph glyph-name="X" unicode="X" horiz-adv-x="812" 
d="M46 0v0v28l278 332l-278 332v28h134l224 -265l223 265h134v-28l-279 -332l279 -331v-29h-134l-224 265l-223 -265h-134z" />
    <glyph glyph-name="Y" unicode="Y" horiz-adv-x="806" 
d="M342 0v0v270l-332 450h142l251 -316l249 316h144l-333 -451v-269h-121z" />
    <glyph glyph-name="Z" unicode="Z" horiz-adv-x="821" 
d="M51 0v0v136l551 463h-551v121h720v-136l-551 -463h551v-121h-720z" />
    <glyph glyph-name="bracketleft" unicode="[" horiz-adv-x="275" 
d="M54 0v0v720h182v-119h-63v-482h63v-119h-182z" />
    <glyph glyph-name="backslash" unicode="\" horiz-adv-x="520" 
d="M486 0v0l-481 592v128h32l479 -588l1 -132h-31z" />
    <glyph glyph-name="bracketright" unicode="]" horiz-adv-x="276" 
d="M51 0v0v119h62v482h-62v119h182v-720h-182z" />
    <glyph glyph-name="underscore" unicode="_" 
d="M54 -120v0v119h717v-119h-717z" />
    <glyph glyph-name="grave" unicode="`" horiz-adv-x="292" 
d="M112 640v0l-43 173h121l43 -173h-121z" />
    <glyph glyph-name="a" unicode="a" horiz-adv-x="694" 
d="M186 0q-37 0 -67.5 18.5t-48.5 48.5t-18 67v216h470v92q0 8 -5.5 13.5t-13.5 5.5h-451v119h455q38 0 68 -18.5t48 -48.5t18 -67v-446h-455zM190 119h332v122h-351v-103q0 -8 5.5 -13.5t13.5 -5.5z" />
    <glyph glyph-name="b" unicode="b" horiz-adv-x="667" 
d="M54 0v0v770h119v-190h337q36 0 66.5 -18.5t48.5 -48.5t18 -67v-312q0 -37 -18 -67t-48.5 -48.5t-66.5 -18.5h-456zM192 119h314q7 0 12.5 5.5t5.5 13.5v304q0 8 -5.5 13.5t-12.5 5.5h-314q-7 0 -13 -5.5t-6 -13.5v-304q0 -8 6 -13.5t13 -5.5z" />
    <glyph glyph-name="c" unicode="c" horiz-adv-x="695" 
d="M185 0q-37 0 -67 18.5t-48.5 48.5t-18.5 67v312q0 37 18.5 67t48.5 48.5t67 18.5h454v-119h-450q-8 0 -13.5 -5.5t-5.5 -13.5v-304q0 -8 5.5 -13.5t13.5 -5.5h451v-119h-455v0z" />
    <glyph glyph-name="d" unicode="d" horiz-adv-x="667" 
d="M157 0q-37 0 -67.5 18.5t-48.5 48.5t-18 67v312q0 37 18 67t48.5 48.5t67.5 18.5h337v190h119v-770h-456v0zM162 119h313q8 0 13.5 5.5t5.5 13.5v304q0 8 -5.5 13.5t-13.5 5.5h-313q-8 0 -13.5 -5.5t-5.5 -13.5v-304q0 -8 5.5 -13.5t13.5 -5.5z" />
    <glyph glyph-name="e" unicode="e" horiz-adv-x="692" 
d="M185 0q-37 0 -67 18.5t-48.5 48.5t-18.5 67v312q0 37 18.5 67t48.5 48.5t67 18.5h321q38 0 68 -18.5t48 -48.5t18 -67v-216h-470v-92q0 -8 5.5 -13.5t13.5 -5.5h451v-119h-455v0zM170 339h351v103q0 8 -5.5 13.5t-13.5 5.5h-313q-8 0 -13.5 -5.5t-5.5 -13.5v-103z" />
    <glyph glyph-name="f" unicode="f" horiz-adv-x="424" 
d="M53 0v0v636q0 37 18 67.5t48.5 48.5t67.5 18h217v-120h-213q-8 0 -13.5 -5.5t-5.5 -12.5v-52h232v-119h-232v-461h-119z" />
    <glyph glyph-name="g" unicode="g" horiz-adv-x="683" 
d="M140 -229v0v120h353q7 0 12.5 5.5t5.5 13.5v90h-336q-36 0 -66.5 18.5t-49 48.5t-18.5 67v312q0 37 18.5 67t49 48.5t66.5 18.5h322q37 0 67.5 -18.5t48 -48.5t17.5 -67v-541q0 -37 -17.5 -67.5t-48 -48.5t-67.5 -18h-357zM179 119h314q7 0 12.5 5.5t5.5 13.5v304
q0 8 -5.5 13.5t-12.5 5.5h-314q-8 0 -13.5 -5.5t-5.5 -13.5v-304q0 -8 5.5 -13.5t13.5 -5.5z" />
    <glyph glyph-name="h" unicode="h" horiz-adv-x="668" 
d="M54 0v0v770h119v-190h337q36 0 66.5 -18.5t48.5 -48.5t18 -67v-446h-119v442q0 8 -5.5 13.5t-12.5 5.5h-314q-7 0 -13 -5.5t-6 -13.5v-442h-119z" />
    <glyph glyph-name="i" unicode="i" horiz-adv-x="219" 
d="M52 0v0v580h119v-580h-119zM52 650v0v120h119v-120h-119z" />
    <glyph glyph-name="j" unicode="j" horiz-adv-x="239" 
d="M-187 -225v0v121h245q8 0 13 5.5t5 12.5v666h120v-670q0 -38 -18 -68t-48.5 -48.5t-67.5 -18.5h-249zM76 650v0v120h120v-120h-120z" />
    <glyph glyph-name="k" unicode="k" horiz-adv-x="646" 
d="M54 0v0v770h119v-420h117l212 230h132v-28l-238 -262l238 -262v-28h-132l-212 230h-117v-230h-119z" />
    <glyph glyph-name="l" unicode="l" horiz-adv-x="320" 
d="M186 0q-37 0 -67 18.5t-48.5 48.5t-18.5 67v637h120v-633q0 -8 5.5 -13.5t12.5 -5.5h108v-119h-112v0z" />
    <glyph glyph-name="m" unicode="m" horiz-adv-x="978" 
d="M54 0v0v580h730q38 0 68 -18.5t48 -48.5t18 -67v-446h-119v442q0 8 -5.5 13.5t-13.5 5.5h-215q-7 0 -12.5 -5.5t-5.5 -13.5v-442h-121v442q0 8 -5 13.5t-13 5.5h-216q-7 0 -12.5 -5.5t-5.5 -13.5v-442h-120z" />
    <glyph glyph-name="n" unicode="n" horiz-adv-x="696" 
d="M54 0v0v580h456q36 0 66.5 -18.5t48.5 -48.5t18 -67v-446h-119v442q0 8 -5.5 13.5t-12.5 5.5h-314q-7 0 -13 -5.5t-6 -13.5v-442h-119z" />
    <glyph glyph-name="o" unicode="o" horiz-adv-x="692" 
d="M185 0q-37 0 -67 18.5t-48.5 48.5t-18.5 67v312q0 37 18.5 67t48.5 48.5t67 18.5h321q38 0 68 -18.5t48 -48.5t18 -67v-312q0 -37 -18 -67t-48 -48.5t-68 -18.5h-321v0zM189 119h313q8 0 13.5 5.5t5.5 13.5v304q0 8 -5.5 13.5t-13.5 5.5h-313q-8 0 -13.5 -5.5t-5.5 -13.5
v-304q0 -8 5.5 -13.5t13.5 -5.5z" />
    <glyph glyph-name="p" unicode="p" horiz-adv-x="664" 
d="M54 -230v0v810h456q36 0 66.5 -18.5t48.5 -48.5t18 -67v-312q0 -37 -18 -67t-48.5 -48.5t-66.5 -18.5h-337v-230h-119zM192 119h314q7 0 12.5 5.5t5.5 13.5v304q0 8 -5.5 13.5t-12.5 5.5h-314q-7 0 -13 -5.5t-6 -13.5v-304q0 -8 6 -13.5t13 -5.5z" />
    <glyph glyph-name="q" unicode="q" horiz-adv-x="664" 
d="M491 -230v0v230h-337q-37 0 -67.5 18.5t-48.5 48.5t-18 67v312q0 37 18 67t48.5 48.5t67.5 18.5h456v-810h-119zM159 119h313q8 0 13.5 5.5t5.5 13.5v304q0 8 -5.5 13.5t-13.5 5.5h-313q-8 0 -13.5 -5.5t-5.5 -13.5v-304q0 -8 5.5 -13.5t13.5 -5.5z" />
    <glyph glyph-name="r" unicode="r" horiz-adv-x="519" 
d="M52 0v0v446q0 37 18.5 67t49 48.5t66.5 18.5h323v-119h-319q-8 0 -13.5 -5.5t-5.5 -13.5v-442h-119z" />
    <glyph glyph-name="s" unicode="s" horiz-adv-x="686" 
d="M182 0q-37 0 -67 18.5t-48.5 48.5t-18.5 67v19h119v-15q0 -8 5.5 -13.5t13.5 -5.5h313q8 0 13.5 5.5t5.5 13.5v74q0 7 -5.5 12.5t-13.5 5.5h-317q-37 0 -67 18.5t-48.5 48.5t-18.5 67v82q0 37 18.5 67t48.5 48.5t67 18.5h321q38 0 68 -18.5t48.5 -48.5t18.5 -67v-19h-120
v15q0 8 -5.5 13.5t-13.5 5.5h-313q-8 0 -13.5 -5.5t-5.5 -13.5v-74q0 -7 5.5 -12.5t13.5 -5.5h317q38 0 68 -18.5t48.5 -48.5t18.5 -67v-82q0 -37 -18.5 -67t-48.5 -48.5t-68 -18.5h-321v0z" />
    <glyph glyph-name="t" unicode="t" horiz-adv-x="432" 
d="M187 0q-37 0 -67.5 18.5t-48.5 48.5t-18 67v627h119v-181h232v-119h-232v-323q0 -8 5.5 -13.5t13.5 -5.5h213v-119h-217v0z" />
    <glyph glyph-name="u" unicode="u" horiz-adv-x="695" 
d="M187 0q-37 0 -67.5 18.5t-48.5 48.5t-18 67v446h119v-442q0 -8 5.5 -13.5t13.5 -5.5h313q8 0 13.5 5.5t5.5 13.5v442h119v-446q0 -37 -18 -67t-48 -48.5t-68 -18.5h-321v0z" />
    <glyph glyph-name="v" unicode="v" horiz-adv-x="790" 
d="M340 0v0l-319 580h138l239 -439l239 439h138l-321 -580h-114z" />
    <glyph glyph-name="w" unicode="w" horiz-adv-x="1062" 
d="M263 0v0l-228 580h127l149 -363l158 363h129l168 -365l138 365h128l-219 -580h-94l-185 409l-176 -409h-95z" />
    <glyph glyph-name="x" unicode="x" horiz-adv-x="692" 
d="M46 0v0v27l220 268l-220 258v27h134l164 -193l163 193h134v-27l-220 -258l221 -268v-27h-134l-164 201l-164 -201h-134z" />
    <glyph glyph-name="y" unicode="y" horiz-adv-x="685" 
d="M141 -218v0v120h353q7 0 12.5 5.5t5.5 12.5v80h-336q-36 0 -66.5 18.5t-49 48.5t-18.5 67v444h119v-440q0 -8 5.5 -13.5t13.5 -5.5h314q7 0 12.5 5.5t5.5 13.5v440h119v-662q0 -38 -17.5 -68t-48 -48t-67.5 -18h-357z" />
    <glyph glyph-name="z" unicode="z" horiz-adv-x="698" 
d="M54 0v0v136l421 325h-421v119h589v-136l-420 -325h420v-119h-589z" />
    <glyph glyph-name="braceleft" unicode="{" horiz-adv-x="289" 
d="M200 0q-36 0 -66.5 18.5t-49 48.5t-18.5 67v148l-43 26v114l43 24v140q0 37 18.5 67.5t49 48.5t66.5 18h48v-120h-44q-7 0 -12.5 -5.5t-5.5 -12.5v-166l-64 -52l64 -52v-174q0 -8 5.5 -13.5t12.5 -5.5h44v-119h-48v0z" />
    <glyph glyph-name="bar" unicode="|" horiz-adv-x="214" 
d="M54 -107v0v929h119v-929h-119z" />
    <glyph glyph-name="braceright" unicode="}" horiz-adv-x="289" 
d="M51 0v0v119h44q8 0 13.5 5.5t5.5 13.5v173l63 53l-63 51v167q0 7 -5.5 12.5t-13.5 5.5h-44v120h48q37 0 67.5 -18t48.5 -48.5t18 -67.5v-140l43 -25v-113l-43 -27v-147q0 -37 -18.5 -67t-48.5 -48.5t-67 -18.5h-48z" />
    <glyph glyph-name="asciitilde" unicode="~" horiz-adv-x="404" 
d="M299 227q-36 0 -98 33q-63 32 -101 32t-76 -24v87q41 16 79 16q39 0 108 -32q68 -34 93 -34q32 0 78 27v-86q-48 -19 -83 -19v0z" />
    <glyph glyph-name="uni00A0" unicode="&#xa0;" horiz-adv-x="298" 
 />
    <glyph glyph-name="exclamdown" unicode="&#xa1;" horiz-adv-x="210" 
d="M53 0v0v522h119v-522h-119zM53 597v0v119h119v-119h-119z" />
    <glyph glyph-name="cent" unicode="&#xa2;" horiz-adv-x="636" 
d="M289 -107v0v107h-122q-37 0 -67.5 18.5t-48.5 48.5t-18 67v322q0 37 18 67.5t48.5 48.5t67.5 18h122v125h120v-125h212v-120h-212v-351h212v-119h-212v-107h-120zM171 119h118v351h-118q-8 0 -13.5 -5.5t-5.5 -13.5v-313q0 -8 5.5 -13.5t13.5 -5.5z" />
    <glyph glyph-name="sterling" unicode="&#xa3;" horiz-adv-x="734" 
d="M39 0v0v119h97v180h-97v119h97v168q0 37 18.5 67.5t49 48.5t66.5 18h281q37 0 67.5 -18t48.5 -48.5t18 -67.5v-37h-120v38q0 7 -5.5 12.5t-13.5 5.5h-272q-7 0 -12.5 -5.5t-5.5 -12.5v-169h326v-119h-326v-180h429v-119h-646z" />
    <glyph glyph-name="dieresis" unicode="&#xa8;" horiz-adv-x="519" 
d="M298 640v0v120h121v-120h-121zM100 640v0v120h120v-120h-120z" />
    <glyph glyph-name="macron" unicode="&#xaf;" horiz-adv-x="500" 
d="M87 638v0v82h324v-82h-324z" />
    <glyph glyph-name="degree" unicode="&#xb0;" horiz-adv-x="439" 
d="M180 370q-38 0 -68 18.5t-48.5 49t-18.5 67.5v77q0 38 18.5 68t48.5 48t68 18h87q36 0 66.5 -18t49 -48t18.5 -68v-77q0 -37 -18.5 -67.5t-49 -49t-66.5 -18.5h-87v0zM163 471h119q8 0 13.5 5.5t5.5 12.5v108q0 8 -5.5 13.5t-13.5 5.5h-119q-7 0 -12.5 -5.5t-5.5 -13.5
v-108q0 -7 5.5 -12.5t12.5 -5.5z" />
    <glyph glyph-name="acute" unicode="&#xb4;" horiz-adv-x="213" 
d="M43 640v0l44 173h120l-43 -173h-121z" />
    <glyph glyph-name="paragraph" unicode="&#xb6;" horiz-adv-x="833" 
d="M444 0v0v250h-254q-37 0 -67.5 18.5t-48.5 49t-18 66.5v194q0 36 18 67t48.5 49.5t67.5 18.5h593v-713h-119v250h-100v-250h-120zM194 370h250v222h-250q-8 0 -13.5 -5.5t-5.5 -12.5v-185q0 -8 5.5 -13.5t13.5 -5.5zM564 370v0h100v222h-100v-222z" />
    <glyph glyph-name="cedilla" unicode="&#xb8;" horiz-adv-x="213" 
d="M24 -148l46 163h120l-45 -163h-121z" />
    <glyph glyph-name="questiondown" unicode="&#xbf;" horiz-adv-x="675" 
d="M153 0q-37 0 -67.5 18.5t-48.5 48.5t-18 67v179q0 38 18 68t48.5 48.5t67.5 18.5h248q8 0 13.5 5t5.5 13v62h119v-66q0 -38 -18 -68t-48 -48.5t-68 -18.5h-248q-8 0 -13.5 -5.5t-5.5 -12.5v-171q0 -8 5.5 -13.5t13.5 -5.5h491l1 -119h-496v0zM420 597v0v119h119v-119
h-119z" />
    <glyph glyph-name="Agrave" unicode="&#xc0;" horiz-adv-x="836" 
d="M58 0v585q0 37 18 68t49 49t68 18h450q37 0 67.5 -18t49 -49t18.5 -68v-585h-121v247h-479v-247h-120v0zM178 367h479v214q0 8 -5.5 13t-13.5 5h-442q-7 0 -12.5 -5t-5.5 -13v-214v0zM365 780v0l-43 173h121l43 -173h-121z" />
    <glyph glyph-name="Aacute" unicode="&#xc1;" horiz-adv-x="836" 
d="M58 0v585q0 37 18 68t49 49t68 18h450q37 0 67.5 -18t49 -49t18.5 -68v-585h-121v247h-479v-247h-120v0zM178 367h479v214q0 8 -5.5 13t-13.5 5h-442q-7 0 -12.5 -5t-5.5 -13v-214v0zM351 780v0l44 173h120l-43 -173h-121z" />
    <glyph glyph-name="Acircumflex" unicode="&#xc2;" horiz-adv-x="836" 
d="M58 0v585q0 37 18 68t49 49t68 18h450q37 0 67.5 -18t49 -49t18.5 -68v-585h-121v247h-479v-247h-120v0zM178 367h479v214q0 8 -5.5 13t-13.5 5h-442q-7 0 -12.5 -5t-5.5 -13v-214v0zM278 794v0l96 162h90l97 -162h-100l-43 73l-41 -73h-99z" />
    <glyph glyph-name="Atilde" unicode="&#xc3;" horiz-adv-x="836" 
d="M58 0v585q0 37 18 68t49 49t68 18h450q37 0 67.5 -18t49 -49t18.5 -68v-585h-121v247h-479v-247h-120v0zM178 367h479v214q0 8 -5.5 13t-13.5 5h-442q-7 0 -12.5 -5t-5.5 -13v-214v0zM515 803q-55 0 -116 43q-59 43 -102 43h-58v92h74q49 0 106 -44q58 -44 104 -44h74
v-90h-82v0z" />
    <glyph glyph-name="Adieresis" unicode="&#xc4;" horiz-adv-x="836" 
d="M58 0v585q0 37 18 68t49 49t68 18h450q37 0 67.5 -18t49 -49t18.5 -68v-585h-121v247h-479v-247h-120v0zM178 367h479v214q0 8 -5.5 13t-13.5 5h-442q-7 0 -12.5 -5t-5.5 -13v-214v0zM457 780v0v120h121v-120h-121zM259 780v0v120h120v-120h-120z" />
    <glyph glyph-name="Aring" unicode="&#xc5;" horiz-adv-x="836" 
d="M58 0v585q0 37 18 68t49 49t68 18h450q37 0 67.5 -18t49 -49t18.5 -68v-585h-121v247h-479v-247h-120v0zM178 367h479v214q0 8 -5.5 13t-13.5 5h-442q-7 0 -12.5 -5t-5.5 -13v-214v0zM392 790q-27 0 -47 19t-20 46v51q0 27 20 46.5t47 19.5h53q27 0 46.5 -19.5
t19.5 -46.5v-51q0 -27 -19.5 -46t-46.5 -19h-53zM389 845h58q2 0 3 1.5t1 3.5v57q0 2 -1 3.5t-3 1.5h-58q-2 0 -3 -1.5t-1 -3.5v-57q0 -2 1 -3.5t3 -1.5z" />
    <glyph glyph-name="AE" unicode="&#xc6;" horiz-adv-x="1375" 
d="M54 0v0v585q0 37 18.5 68t49 49t67.5 18h1126v-121h-541v-178h435v-122h-435v-178h541v-121h-661v247h-479v-247h-121zM175 367v0h479v214q0 8 -5.5 13t-12.5 5h-442q-8 0 -13.5 -5t-5.5 -13v-214z" />
    <glyph glyph-name="Ccedilla" unicode="&#xc7;" horiz-adv-x="822" 
d="M191 0q-37 0 -68 18t-49 49t-18 68v450q0 37 18 68t49 49t68 18h583v-121h-562q-16 0 -26 -9.5t-10 -25.5v-408q0 -16 10 -25.5t26 -9.5h562v-121h-583zM346 -148l46 163h120l-45 -163h-121z" />
    <glyph glyph-name="Egrave" unicode="&#xc8;" horiz-adv-x="766" 
d="M58 0v720h661v-121h-540v-178h435v-122h-435v-178h540v-121h-661zM345 780v0l-43 173h121l43 -173h-121z" />
    <glyph glyph-name="Eacute" unicode="&#xc9;" horiz-adv-x="766" 
d="M58 0v720h661v-121h-540v-178h435v-122h-435v-178h540v-121h-661zM331 780v0l44 173h120l-43 -173h-121z" />
    <glyph glyph-name="Ecircumflex" unicode="&#xca;" horiz-adv-x="766" 
d="M58 0v720h661v-121h-540v-178h435v-122h-435v-178h540v-121h-661zM258 794v0l96 162h90l97 -162h-100l-43 73l-41 -73h-99z" />
    <glyph glyph-name="Edieresis" unicode="&#xcb;" horiz-adv-x="766" 
d="M58 0v720h661v-121h-540v-178h435v-122h-435v-178h540v-121h-661zM437 780v0v120h121v-120h-121zM239 780v0v120h120v-120h-120z" />
    <glyph glyph-name="Igrave" unicode="&#xcc;" horiz-adv-x="214" 
d="M48 0v720h119v-720h-119zM56 780v0l-43 173h121l43 -173h-121z" />
    <glyph glyph-name="Iacute" unicode="&#xcd;" horiz-adv-x="214" 
d="M48 0v720h119v-720h-119zM42 780v0l44 173h120l-43 -173h-121z" />
    <glyph glyph-name="Icircumflex" unicode="&#xce;" horiz-adv-x="214" 
d="M48 0v720h119v-720h-119zM-31 794v0l96 162h90l97 -162h-100l-43 73l-41 -73h-99z" />
    <glyph glyph-name="Idieresis" unicode="&#xcf;" horiz-adv-x="214" 
d="M48 0v720h119v-720h-119zM148 780v0v120h121v-120h-121zM-50 780v0v120h120v-120h-120z" />
    <glyph glyph-name="Ntilde" unicode="&#xd1;" horiz-adv-x="832" 
d="M56 0v720h137l462 -550v550h121v-720h-137l-463 551v-551h-120zM500 803q-55 0 -116 43q-59 43 -102 43h-58v92h74q49 0 106 -44q58 -44 104 -44h74v-90h-82v0z" />
    <glyph glyph-name="Ograve" unicode="&#xd2;" 
d="M189 0q-37 0 -68 18t-49 49t-18 68v450q0 37 18 68t49 49t68 18h450q37 0 67.5 -18t49 -49t18.5 -68v-450q0 -37 -18.5 -68t-49 -49t-67.5 -18h-450zM192 121h442q8 0 13.5 5t5.5 13v442q0 8 -5.5 13t-13.5 5h-442q-7 0 -12.5 -5t-5.5 -13v-442q0 -8 5.5 -13t12.5 -5z
M361 780v0l-43 173h121l43 -173h-121z" />
    <glyph glyph-name="Oacute" unicode="&#xd3;" 
d="M189 0q-37 0 -68 18t-49 49t-18 68v450q0 37 18 68t49 49t68 18h450q37 0 67.5 -18t49 -49t18.5 -68v-450q0 -37 -18.5 -68t-49 -49t-67.5 -18h-450zM192 121h442q8 0 13.5 5t5.5 13v442q0 8 -5.5 13t-13.5 5h-442q-7 0 -12.5 -5t-5.5 -13v-442q0 -8 5.5 -13t12.5 -5z
M347 780v0l44 173h120l-43 -173h-121z" />
    <glyph glyph-name="Ocircumflex" unicode="&#xd4;" 
d="M189 0q-37 0 -68 18t-49 49t-18 68v450q0 37 18 68t49 49t68 18h450q37 0 67.5 -18t49 -49t18.5 -68v-450q0 -37 -18.5 -68t-49 -49t-67.5 -18h-450zM192 121h442q8 0 13.5 5t5.5 13v442q0 8 -5.5 13t-13.5 5h-442q-7 0 -12.5 -5t-5.5 -13v-442q0 -8 5.5 -13t12.5 -5z
M274 794v0l96 162h90l97 -162h-100l-43 73l-41 -73h-99z" />
    <glyph glyph-name="Otilde" unicode="&#xd5;" 
d="M189 0q-37 0 -68 18t-49 49t-18 68v450q0 37 18 68t49 49t68 18h450q37 0 67.5 -18t49 -49t18.5 -68v-450q0 -37 -18.5 -68t-49 -49t-67.5 -18h-450zM192 121h442q8 0 13.5 5t5.5 13v442q0 8 -5.5 13t-13.5 5h-442q-7 0 -12.5 -5t-5.5 -13v-442q0 -8 5.5 -13t12.5 -5z
M511 803q-55 0 -116 43q-59 43 -102 43h-58v92h74q49 0 106 -44q58 -44 104 -44h74v-90h-82v0z" />
    <glyph glyph-name="Odieresis" unicode="&#xd6;" 
d="M189 0q-37 0 -68 18t-49 49t-18 68v450q0 37 18 68t49 49t68 18h450q37 0 67.5 -18t49 -49t18.5 -68v-450q0 -37 -18.5 -68t-49 -49t-67.5 -18h-450zM192 121h442q8 0 13.5 5t5.5 13v442q0 8 -5.5 13t-13.5 5h-442q-7 0 -12.5 -5t-5.5 -13v-442q0 -8 5.5 -13t12.5 -5z
M453 780v0v120h121v-120h-121zM255 780v0v120h120v-120h-120z" />
    <glyph glyph-name="multiply" unicode="&#xd7;" horiz-adv-x="546" 
d="M53 88v0l3 30l140 182l-142 183l-1 28h134l86 -117l86 117h134l-2 -28l-141 -183l140 -182l3 -30h-134l-86 117l-86 -117h-134z" />
    <glyph glyph-name="Ugrave" unicode="&#xd9;" 
d="M189 0q-37 0 -68 18t-49 49t-18 68v585h120v-581q0 -8 5.5 -13t12.5 -5h442q8 0 13.5 5t5.5 13v581h121v-585q0 -37 -18.5 -68t-49 -49t-67.5 -18h-450v0zM361 780v0l-43 173h121l43 -173h-121z" />
    <glyph glyph-name="Uacute" unicode="&#xda;" 
d="M189 0q-37 0 -68 18t-49 49t-18 68v585h120v-581q0 -8 5.5 -13t12.5 -5h442q8 0 13.5 5t5.5 13v581h121v-585q0 -37 -18.5 -68t-49 -49t-67.5 -18h-450v0zM347 780v0l44 173h120l-43 -173h-121z" />
    <glyph glyph-name="Ucircumflex" unicode="&#xdb;" 
d="M189 0q-37 0 -68 18t-49 49t-18 68v585h120v-581q0 -8 5.5 -13t12.5 -5h442q8 0 13.5 5t5.5 13v581h121v-585q0 -37 -18.5 -68t-49 -49t-67.5 -18h-450v0zM274 794v0l96 162h90l97 -162h-100l-43 73l-41 -73h-99z" />
    <glyph glyph-name="Udieresis" unicode="&#xdc;" 
d="M189 0q-37 0 -68 18t-49 49t-18 68v585h120v-581q0 -8 5.5 -13t12.5 -5h442q8 0 13.5 5t5.5 13v581h121v-585q0 -37 -18.5 -68t-49 -49t-67.5 -18h-450v0zM453 780v0v120h121v-120h-121zM255 780v0v120h120v-120h-120z" />
    <glyph glyph-name="Yacute" unicode="&#xdd;" horiz-adv-x="806" 
d="M342 0v0v270l-332 450h142l251 -316l249 316h144l-333 -451v-269h-121zM335 780v0l44 173h120l-43 -173h-121z" />
    <glyph glyph-name="germandbls" unicode="&#xdf;" horiz-adv-x="833" 
d="M57 0v0v586q0 37 18 67.5t48.5 48.5t67.5 18h448q32 0 60.5 -15t48 -40.5t25.5 -55.5v-167q0 -38 -23 -74q23 -35 23 -74v-160q0 -37 -18 -67t-48.5 -48.5t-67.5 -18.5h-361v119h358q7 0 12.5 5.5t5.5 13.5v151q0 8 -5.5 13.5t-12.5 5.5h-358v109h358q7 0 12.5 5.5
t5.5 13.5v145q0 7 -5.5 12.5t-12.5 5.5h-441q-8 0 -13.5 -5.5t-5.5 -12.5v-581h-119z" />
    <glyph glyph-name="agrave" unicode="&#xe0;" horiz-adv-x="694" 
d="M186 0q-37 0 -67.5 18.5t-48.5 48.5t-18 67v216h470v92q0 8 -5.5 13.5t-13.5 5.5h-451v119h455q38 0 68 -18.5t48 -48.5t18 -67v-446h-455zM190 119h332v122h-351v-103q0 -8 5.5 -13.5t13.5 -5.5zM314 640v0l-43 173h121l43 -173h-121z" />
    <glyph glyph-name="aacute" unicode="&#xe1;" horiz-adv-x="694" 
d="M186 0q-37 0 -67.5 18.5t-48.5 48.5t-18 67v216h470v92q0 8 -5.5 13.5t-13.5 5.5h-451v119h455q38 0 68 -18.5t48 -48.5t18 -67v-446h-455zM190 119h332v122h-351v-103q0 -8 5.5 -13.5t13.5 -5.5zM300 640v0l44 173h120l-43 -173h-121z" />
    <glyph glyph-name="acircumflex" unicode="&#xe2;" horiz-adv-x="694" 
d="M186 0q-37 0 -67.5 18.5t-48.5 48.5t-18 67v216h470v92q0 8 -5.5 13.5t-13.5 5.5h-451v119h455q38 0 68 -18.5t48 -48.5t18 -67v-446h-455zM190 119h332v122h-351v-103q0 -8 5.5 -13.5t13.5 -5.5zM227 654v0l96 162h90l97 -162h-100l-43 73l-41 -73h-99z" />
    <glyph glyph-name="atilde" unicode="&#xe3;" horiz-adv-x="694" 
d="M186 0q-37 0 -67.5 18.5t-48.5 48.5t-18 67v216h470v92q0 8 -5.5 13.5t-13.5 5.5h-451v119h455q38 0 68 -18.5t48 -48.5t18 -67v-446h-455zM190 119h332v122h-351v-103q0 -8 5.5 -13.5t13.5 -5.5zM464 663q-55 0 -116 43q-59 43 -102 43h-58v92h74q49 0 106 -44
q58 -44 104 -44h74v-90h-82v0z" />
    <glyph glyph-name="adieresis" unicode="&#xe4;" horiz-adv-x="694" 
d="M186 0q-37 0 -67.5 18.5t-48.5 48.5t-18 67v216h470v92q0 8 -5.5 13.5t-13.5 5.5h-451v119h455q38 0 68 -18.5t48 -48.5t18 -67v-446h-455zM190 119h332v122h-351v-103q0 -8 5.5 -13.5t13.5 -5.5zM406 640v0v120h121v-120h-121zM208 640v0v120h120v-120h-120z" />
    <glyph glyph-name="aring" unicode="&#xe5;" horiz-adv-x="694" 
d="M186 0q-37 0 -67.5 18.5t-48.5 48.5t-18 67v216h470v92q0 8 -5.5 13.5t-13.5 5.5h-451v119h455q38 0 68 -18.5t48 -48.5t18 -67v-446h-455zM190 119h332v122h-351v-103q0 -8 5.5 -13.5t13.5 -5.5zM341 650q-27 0 -47 19t-20 46v51q0 27 20 46.5t47 19.5h53
q27 0 46.5 -19.5t19.5 -46.5v-51q0 -27 -19.5 -46t-46.5 -19h-53zM338 705h58q2 0 3 1.5t1 3.5v57q0 2 -1 3.5t-3 1.5h-58q-2 0 -3 -1.5t-1 -3.5v-57q0 -2 1 -3.5t3 -1.5z" />
    <glyph glyph-name="ae" unicode="&#xe6;" horiz-adv-x="1178" 
d="M186 0q-37 0 -67.5 18.5t-48.5 48.5t-18 67v216h470v92q0 8 -5.5 13.5t-12.5 5.5h-452v119h926q38 0 68 -18.5t48 -48.5t18 -67v-216h-470v-94q1 -7 6.5 -12t12.5 -5h451v-119h-926zM190 119h332v122h-350v-103q0 -8 5.5 -13.5t12.5 -5.5zM642 339h351v103q0 8 -5.5 13.5
t-13.5 5.5h-313q-8 0 -13.5 -5.5t-5.5 -13.5v-103z" />
    <glyph glyph-name="ccedilla" unicode="&#xe7;" horiz-adv-x="695" 
d="M185 0q-37 0 -67 18.5t-48.5 48.5t-18.5 67v312q0 37 18.5 67t48.5 48.5t67 18.5h454v-119h-450q-8 0 -13.5 -5.5t-5.5 -13.5v-304q0 -8 5.5 -13.5t13.5 -5.5h451v-119h-455v0zM269 -148l46 163h120l-45 -163h-121z" />
    <glyph glyph-name="egrave" unicode="&#xe8;" horiz-adv-x="692" 
d="M185 0q-37 0 -67 18.5t-48.5 48.5t-18.5 67v312q0 37 18.5 67t48.5 48.5t67 18.5h321q38 0 68 -18.5t48 -48.5t18 -67v-216h-470v-92q0 -8 5.5 -13.5t13.5 -5.5h451v-119h-455v0zM170 339h351v103q0 8 -5.5 13.5t-13.5 5.5h-313q-8 0 -13.5 -5.5t-5.5 -13.5v-103z
M293 640v0l-43 173h121l43 -173h-121z" />
    <glyph glyph-name="eacute" unicode="&#xe9;" horiz-adv-x="692" 
d="M185 0q-37 0 -67 18.5t-48.5 48.5t-18.5 67v312q0 37 18.5 67t48.5 48.5t67 18.5h321q38 0 68 -18.5t48 -48.5t18 -67v-216h-470v-92q0 -8 5.5 -13.5t13.5 -5.5h451v-119h-455v0zM170 339h351v103q0 8 -5.5 13.5t-13.5 5.5h-313q-8 0 -13.5 -5.5t-5.5 -13.5v-103z
M279 640v0l44 173h120l-43 -173h-121z" />
    <glyph glyph-name="ecircumflex" unicode="&#xea;" horiz-adv-x="692" 
d="M185 0q-37 0 -67 18.5t-48.5 48.5t-18.5 67v312q0 37 18.5 67t48.5 48.5t67 18.5h321q38 0 68 -18.5t48 -48.5t18 -67v-216h-470v-92q0 -8 5.5 -13.5t13.5 -5.5h451v-119h-455v0zM170 339h351v103q0 8 -5.5 13.5t-13.5 5.5h-313q-8 0 -13.5 -5.5t-5.5 -13.5v-103z
M205 654v0l96 162h90l97 -162h-100l-43 73l-41 -73h-99z" />
    <glyph glyph-name="edieresis" unicode="&#xeb;" horiz-adv-x="692" 
d="M185 0q-37 0 -67 18.5t-48.5 48.5t-18.5 67v312q0 37 18.5 67t48.5 48.5t67 18.5h321q38 0 68 -18.5t48 -48.5t18 -67v-216h-470v-92q0 -8 5.5 -13.5t13.5 -5.5h451v-119h-455v0zM170 339h351v103q0 8 -5.5 13.5t-13.5 5.5h-313q-8 0 -13.5 -5.5t-5.5 -13.5v-103z
M385 640v0v120h121v-120h-121zM187 640v0v120h120v-120h-120z" />
    <glyph glyph-name="igrave" unicode="&#xec;" horiz-adv-x="214" 
d="M48 0v0v580h119v-580h-119zM54 640v0l-43 173h121l43 -173h-121z" />
    <glyph glyph-name="iacute" unicode="&#xed;" horiz-adv-x="214" 
d="M48 0v0v580h119v-580h-119zM40 640v0l44 173h120l-43 -173h-121z" />
    <glyph glyph-name="icircumflex" unicode="&#xee;" horiz-adv-x="214" 
d="M48 0v0v580h119v-580h-119zM-33 654v0l96 162h90l97 -162h-100l-43 73l-41 -73h-99z" />
    <glyph glyph-name="idieresis" unicode="&#xef;" horiz-adv-x="214" 
d="M48 0v0v580h119v-580h-119zM146 640v0v120h121v-120h-121zM-52 640v0v120h120v-120h-120z" />
    <glyph glyph-name="ntilde" unicode="&#xf1;" horiz-adv-x="696" 
d="M54 0v0v580h456q36 0 66.5 -18.5t48.5 -48.5t18 -67v-446h-119v442q0 8 -5.5 13.5t-12.5 5.5h-314q-7 0 -13 -5.5t-6 -13.5v-442h-119zM438 663q-55 0 -116 43q-59 43 -102 43h-58v92h74q49 0 106 -44q58 -44 104 -44h74v-90h-82v0z" />
    <glyph glyph-name="ograve" unicode="&#xf2;" horiz-adv-x="692" 
d="M185 0q-37 0 -67 18.5t-48.5 48.5t-18.5 67v312q0 37 18.5 67t48.5 48.5t67 18.5h321q38 0 68 -18.5t48 -48.5t18 -67v-312q0 -37 -18 -67t-48 -48.5t-68 -18.5h-321v0zM189 119h313q8 0 13.5 5.5t5.5 13.5v304q0 8 -5.5 13.5t-13.5 5.5h-313q-8 0 -13.5 -5.5t-5.5 -13.5
v-304q0 -8 5.5 -13.5t13.5 -5.5zM292 638v0l-43 173h121l43 -173h-121z" />
    <glyph glyph-name="oacute" unicode="&#xf3;" horiz-adv-x="692" 
d="M185 0q-37 0 -67 18.5t-48.5 48.5t-18.5 67v312q0 37 18.5 67t48.5 48.5t67 18.5h321q38 0 68 -18.5t48 -48.5t18 -67v-312q0 -37 -18 -67t-48 -48.5t-68 -18.5h-321v0zM189 119h313q8 0 13.5 5.5t5.5 13.5v304q0 8 -5.5 13.5t-13.5 5.5h-313q-8 0 -13.5 -5.5t-5.5 -13.5
v-304q0 -8 5.5 -13.5t13.5 -5.5zM278 638v0l44 173h120l-43 -173h-121z" />
    <glyph glyph-name="ocircumflex" unicode="&#xf4;" horiz-adv-x="692" 
d="M185 0q-37 0 -67 18.5t-48.5 48.5t-18.5 67v312q0 37 18.5 67t48.5 48.5t67 18.5h321q38 0 68 -18.5t48 -48.5t18 -67v-312q0 -37 -18 -67t-48 -48.5t-68 -18.5h-321v0zM189 119h313q8 0 13.5 5.5t5.5 13.5v304q0 8 -5.5 13.5t-13.5 5.5h-313q-8 0 -13.5 -5.5t-5.5 -13.5
v-304q0 -8 5.5 -13.5t13.5 -5.5zM205 652v0l96 162h90l97 -162h-100l-43 73l-41 -73h-99z" />
    <glyph glyph-name="otilde" unicode="&#xf5;" horiz-adv-x="692" 
d="M185 0q-37 0 -67 18.5t-48.5 48.5t-18.5 67v312q0 37 18.5 67t48.5 48.5t67 18.5h321q38 0 68 -18.5t48 -48.5t18 -67v-312q0 -37 -18 -67t-48 -48.5t-68 -18.5h-321v0zM189 119h313q8 0 13.5 5.5t5.5 13.5v304q0 8 -5.5 13.5t-13.5 5.5h-313q-8 0 -13.5 -5.5t-5.5 -13.5
v-304q0 -8 5.5 -13.5t13.5 -5.5zM442 661q-55 0 -116 43q-59 43 -102 43h-58v92h74q49 0 106 -44q58 -44 104 -44h74v-90h-82v0z" />
    <glyph glyph-name="odieresis" unicode="&#xf6;" horiz-adv-x="692" 
d="M185 0q-37 0 -67 18.5t-48.5 48.5t-18.5 67v312q0 37 18.5 67t48.5 48.5t67 18.5h321q38 0 68 -18.5t48 -48.5t18 -67v-312q0 -37 -18 -67t-48 -48.5t-68 -18.5h-321v0zM189 119h313q8 0 13.5 5.5t5.5 13.5v304q0 8 -5.5 13.5t-13.5 5.5h-313q-8 0 -13.5 -5.5t-5.5 -13.5
v-304q0 -8 5.5 -13.5t13.5 -5.5zM384 638v0v120h121v-120h-121zM186 638v0v120h120v-120h-120z" />
    <glyph glyph-name="divide" unicode="&#xf7;" horiz-adv-x="514" 
d="M12 247v0v120h483v-120h-483zM198 0v0v120h120v-120h-120zM198 479v0v120h120v-120h-120z" />
    <glyph glyph-name="ugrave" unicode="&#xf9;" horiz-adv-x="695" 
d="M187 0q-37 0 -67.5 18.5t-48.5 48.5t-18 67v446h119v-442q0 -8 5.5 -13.5t13.5 -5.5h313q8 0 13.5 5.5t5.5 13.5v442h119v-446q0 -37 -18 -67t-48 -48.5t-68 -18.5h-321v0zM295 639v0l-43 173h121l43 -173h-121z" />
    <glyph glyph-name="uacute" unicode="&#xfa;" horiz-adv-x="695" 
d="M187 0q-37 0 -67.5 18.5t-48.5 48.5t-18 67v446h119v-442q0 -8 5.5 -13.5t13.5 -5.5h313q8 0 13.5 5.5t5.5 13.5v442h119v-446q0 -37 -18 -67t-48 -48.5t-68 -18.5h-321v0zM281 639v0l44 173h120l-43 -173h-121z" />
    <glyph glyph-name="ucircumflex" unicode="&#xfb;" horiz-adv-x="695" 
d="M187 0q-37 0 -67.5 18.5t-48.5 48.5t-18 67v446h119v-442q0 -8 5.5 -13.5t13.5 -5.5h313q8 0 13.5 5.5t5.5 13.5v442h119v-446q0 -37 -18 -67t-48 -48.5t-68 -18.5h-321v0zM207 653v0l96 162h90l97 -162h-100l-43 73l-41 -73h-99z" />
    <glyph glyph-name="udieresis" unicode="&#xfc;" horiz-adv-x="695" 
d="M187 0q-37 0 -67.5 18.5t-48.5 48.5t-18 67v446h119v-442q0 -8 5.5 -13.5t13.5 -5.5h313q8 0 13.5 5.5t5.5 13.5v442h119v-446q0 -37 -18 -67t-48 -48.5t-68 -18.5h-321v0zM387 639v0v120h121v-120h-121zM189 639v0v120h120v-120h-120z" />
    <glyph glyph-name="yacute" unicode="&#xfd;" horiz-adv-x="685" 
d="M141 -218v0v120h353q7 0 12.5 5.5t5.5 12.5v80h-336q-36 0 -66.5 18.5t-49 48.5t-18.5 67v444h119v-440q0 -8 5.5 -13.5t13.5 -5.5h314q7 0 12.5 5.5t5.5 13.5v440h119v-662q0 -38 -17.5 -68t-48 -48t-67.5 -18h-357zM269 640v0l44 173h120l-43 -173h-121z" />
    <glyph glyph-name="ydieresis" unicode="&#xff;" horiz-adv-x="685" 
d="M141 -218v0v120h353q7 0 12.5 5.5t5.5 12.5v80h-336q-36 0 -66.5 18.5t-49 48.5t-18.5 67v444h119v-440q0 -8 5.5 -13.5t13.5 -5.5h314q7 0 12.5 5.5t5.5 13.5v440h119v-662q0 -38 -17.5 -68t-48 -48t-67.5 -18h-357zM375 640v0v120h121v-120h-121zM177 640v0v120h120
v-120h-120z" />
    <glyph glyph-name="dotlessi" unicode="&#x131;" horiz-adv-x="214" 
d="M48 0v0v580h119v-580h-119z" />
    <glyph glyph-name="OE" unicode="&#x152;" horiz-adv-x="1374" 
d="M188 0q-37 0 -68 18t-49 49t-18 68v450q0 37 18 68t49 49t68 18h1126v-121h-541v-178h435v-122h-435v-178h541v-121h-1126zM193 121h442q7 0 12.5 5t5.5 13v442q0 8 -5.5 13t-12.5 5h-442q-8 0 -13.5 -5t-5.5 -13v-442q0 -8 5.5 -13t13.5 -5z" />
    <glyph glyph-name="oe" unicode="&#x153;" horiz-adv-x="1177" 
d="M186 0q-37 0 -67.5 18.5t-48.5 48.5t-18 67v312q0 37 18 67t48.5 48.5t67.5 18.5h792q37 0 67 -18.5t48 -48.5t18 -67v-216h-470v-92q0 -8 5.5 -13.5t13.5 -5.5h451v-119h-925v0zM190 119v0h314q7 0 12.5 5.5t5.5 13.5v304q0 8 -5.5 13.5t-12.5 5.5h-314q-8 0 -13.5 -5.5
t-5.5 -13.5v-304q0 -8 5.5 -13.5t13.5 -5.5zM641 339v0h351v103q0 8 -5.5 13.5t-13.5 5.5h-313q-8 0 -13.5 -5.5t-5.5 -13.5v-103z" />
    <glyph glyph-name="Scaron" unicode="&#x160;" horiz-adv-x="825" 
d="M187 0q-37 0 -67.5 18t-48.5 49t-18 68v48h120v-44q0 -8 5 -13t13 -5h442q8 0 13.5 5t5.5 13v143q0 7 -5.5 12t-13.5 5h-446q-37 0 -67.5 18.5t-48.5 49t-18 67.5v151q0 37 18 68t48.5 49t67.5 18h451q37 0 67.5 -18t49 -49t18.5 -68v-48h-121v44q0 8 -5.5 13t-13.5 5
h-442q-8 0 -13 -5t-5 -13v-143q0 -7 5 -12t13 -5h447q37 0 67.5 -18.5t49 -49t18.5 -67.5v-151q0 -37 -18.5 -68t-49 -49t-67.5 -18h-451zM374 780v0l-92 152h89l42 -63l42 63h91l-91 -152h-81z" />
    <glyph glyph-name="scaron" unicode="&#x161;" horiz-adv-x="686" 
d="M182 0q-37 0 -67 18.5t-48.5 48.5t-18.5 67v19h119v-15q0 -8 5.5 -13.5t13.5 -5.5h313q8 0 13.5 5.5t5.5 13.5v74q0 7 -5.5 12.5t-13.5 5.5h-317q-37 0 -67 18.5t-48.5 48.5t-18.5 67v82q0 37 18.5 67t48.5 48.5t67 18.5h321q38 0 68 -18.5t48.5 -48.5t18.5 -67v-19h-120
v15q0 8 -5.5 13.5t-13.5 5.5h-313q-8 0 -13.5 -5.5t-5.5 -13.5v-74q0 -7 5.5 -12.5t13.5 -5.5h317q38 0 68 -18.5t48.5 -48.5t18.5 -67v-82q0 -37 -18.5 -67t-48.5 -48.5t-68 -18.5h-321v0zM300 640v0l-92 152h89l42 -63l42 63h91l-91 -152h-81z" />
    <glyph glyph-name="Ydieresis" unicode="&#x178;" horiz-adv-x="806" 
d="M342 0v0v270l-332 450h142l251 -316l249 316h144l-333 -451v-269h-121zM441 780v0v120h121v-120h-121zM243 780v0v120h120v-120h-120z" />
    <glyph glyph-name="Zcaron" unicode="&#x17d;" horiz-adv-x="821" 
d="M51 0v0v136l551 463h-551v121h720v-136l-551 -463h551v-121h-720zM371 780v0l-92 152h89l42 -63l42 63h91l-91 -152h-81z" />
    <glyph glyph-name="zcaron" unicode="&#x17e;" horiz-adv-x="698" 
d="M54 0v0v136l421 325h-421v119h589v-136l-420 -325h420v-119h-589zM305 640v0l-92 152h89l42 -63l42 63h91l-91 -152h-81z" />
    <glyph glyph-name="circumflex" unicode="&#x2c6;" horiz-adv-x="483" 
d="M100 654v0l96 162h90l97 -162h-100l-43 73l-41 -73h-99z" />
    <glyph glyph-name="caron" unicode="&#x2c7;" horiz-adv-x="297" 
d="M109 640v0l-92 152h89l42 -63l42 63h91l-91 -152h-81z" />
    <glyph glyph-name="breve" unicode="&#x2d8;" horiz-adv-x="287" 
d="M125 806q-39 0 -62 25t-23 76l69 1q0 -16 2.5 -23.5t7.5 -8.5h62q3 1 4.5 8.5t1.5 23.5h68q0 -52 -23 -77t-57 -25h-50v0z" />
    <glyph glyph-name="dotaccent" unicode="&#x2d9;" horiz-adv-x="267" 
d="M73 640v120h120v-120h-120z" />
    <glyph glyph-name="ring" unicode="&#x2da;" horiz-adv-x="233" 
d="M91 758q-27 0 -47 19t-20 46v51q0 27 20 46.5t47 19.5h53q27 0 46.5 -19.5t19.5 -46.5v-51q0 -27 -19.5 -46t-46.5 -19h-53zM88 813h58q2 0 3 1.5t1 3.5v57q0 2 -1 3.5t-3 1.5h-58q-2 0 -3 -1.5t-1 -3.5v-57q0 -2 1 -3.5t3 -1.5z" />
    <glyph glyph-name="ogonek" unicode="&#x2db;" horiz-adv-x="500" 
d="M189 -250v0v233h122v-233h-122z" />
    <glyph glyph-name="tilde" unicode="&#x2dc;" horiz-adv-x="403" 
d="M299 663q-55 0 -116 43q-59 43 -102 43h-58v92h74q49 0 106 -44q58 -44 104 -44h74v-90h-82v0z" />
    <glyph glyph-name="gravecomb" unicode="&#x300;" horiz-adv-x="0" 
d="M-53 640v0l-43 173h121l43 -173h-121z" />
    <glyph glyph-name="acutecomb" unicode="&#x301;" horiz-adv-x="0" 
d="M-67 640v0l44 173h120l-43 -173h-121z" />
    <glyph glyph-name="uni0302" unicode="&#x302;" horiz-adv-x="0" 
d="M-140 654v0l96 162h90l97 -162h-100l-43 73l-41 -73h-99z" />
    <glyph glyph-name="tildecomb" unicode="&#x303;" horiz-adv-x="0" 
d="M97 663q-55 0 -116 43q-59 43 -102 43h-58v92h74q49 0 106 -44q58 -44 104 -44h74v-90h-82v0z" />
    <glyph glyph-name="uni0307" unicode="&#x307;" horiz-adv-x="0" 
d="M-60 640v120h120v-120h-120z" />
    <glyph glyph-name="uni0308" unicode="&#x308;" horiz-adv-x="0" 
d="M39 640v0v120h121v-120h-121zM-159 640v0v120h120v-120h-120z" />
    <glyph glyph-name="uni030A" unicode="&#x30a;" horiz-adv-x="0" 
d="M-26 650q-27 0 -47 19t-20 46v51q0 27 20 46.5t47 19.5h53q27 0 46.5 -19.5t19.5 -46.5v-51q0 -27 -19.5 -46t-46.5 -19h-53zM-29 705h58q2 0 3 1.5t1 3.5v57q0 2 -1 3.5t-3 1.5h-58q-2 0 -3 -1.5t-1 -3.5v-57q0 -2 1 -3.5t3 -1.5z" />
    <glyph glyph-name="uni030C" unicode="&#x30c;" horiz-adv-x="0" 
d="M-40 640v0l-92 152h89l42 -63l42 63h91l-91 -152h-81z" />
    <glyph glyph-name="uni0327" unicode="&#x327;" horiz-adv-x="0" 
d="M346 -148l46 163h120l-45 -163h-121z" />
    <glyph glyph-name="endash" unicode="&#x2013;" horiz-adv-x="708" 
d="M54 235v0v119h599v-119h-599z" />
    <glyph glyph-name="emdash" unicode="&#x2014;" horiz-adv-x="822" 
d="M54 235v0v119h711v-119h-711z" />
    <glyph glyph-name="quoteleft" unicode="&#x2018;" horiz-adv-x="206" 
d="M34 468v0v113q0 32 15.5 59.5t42.5 47t61 26.5v-246h-119z" />
    <glyph glyph-name="quoteright" unicode="&#x2019;" horiz-adv-x="204" 
d="M54 468v0v245h119v-112q0 -32 -15.5 -59.5t-42.5 -47t-61 -26.5z" />
    <glyph glyph-name="quotedblleft" unicode="&#x201c;" horiz-adv-x="417" 
d="M46 468v0v113q0 32 15.5 60t43 47t61.5 26v-246h-120zM245 468v0v112q0 33 15.5 60.5t42.5 46.5t61 26v-245h-119z" />
    <glyph glyph-name="quotedblright" unicode="&#x201d;" horiz-adv-x="417" 
d="M54 468v0v245h120v-112q0 -32 -15.5 -59.5t-43 -47t-61.5 -26.5zM253 468v0v245h119v-112q0 -32 -15.5 -59.5t-42.5 -47t-61 -26.5z" />
    <glyph glyph-name="bullet" unicode="&#x2022;" horiz-adv-x="371" 
d="M173 301q-48 0 -48 47v20q0 48 48 48h23q49 0 49 -48v-20q0 -47 -49 -47h-23v0z" />
    <glyph glyph-name="ellipsis" unicode="&#x2026;" horiz-adv-x="574" 
d="M54 0v0v119h120v-119h-120zM245 0v0v119h120v-119h-120zM435 0v0v119h120v-119h-120z" />
    <glyph glyph-name="Euro" unicode="&#x20ac;" horiz-adv-x="799" 
d="M266 0q-37 0 -67.5 18.5t-48.5 48.5t-18 67v73h-97v120h97v67h-97v120h97v72q0 38 18 68t48.5 48t67.5 18h483v-119h-479q-7 0 -12.5 -5.5t-5.5 -13.5v-68h392v-120h-392v-67h392v-120h-392v-69q0 -8 5.5 -13.5t12.5 -5.5h479v-119h-483v0z" />
    <glyph glyph-name="minus" unicode="&#x2212;" horiz-adv-x="517" 
d="M59 236v0v119h404v-119h-404z" />
    <glyph glyph-name="uniE002" unicode="&#xe002;" horiz-adv-x="771" 
d="M48 0v0v27l479 574h-481v119h715v-27l-580 -693h-133z" />
    <glyph glyph-name="uniE003" unicode="&#xe003;" horiz-adv-x="784" 
d="M610 0v255q0 16 -2.5 23.5t-10.5 10t-23 2.5h-427q-38 0 -68 18t-48.5 48.5t-18.5 67.5v159q0 38 18.5 68t48.5 48.5t68 18.5h448q37 0 67.5 -18.5t48.5 -48.5t18 -68v-584h-119zM151 410h459v170q0 8 -5.5 13.5t-13.5 5.5h-440q-8 0 -13.5 -5.5t-5.5 -13.5v-151
q0 -8 5.5 -13.5t13.5 -5.5z" />
    <glyph glyph-name="uniE005" unicode="&#xe005;" horiz-adv-x="815" 
d="M182 0q-48 0 -84.5 30.5t-47.5 73.5l-1 126l596 312v58h-457q-8 0 -13.5 -5.5t-5.5 -12.5v-57h-120v61q0 37 18.5 67.5t48.5 48.5t68 18h448q32 0 59.5 -15t47 -40.5t25.5 -55.5v-139l-595 -313v-38h595v-119h-582v0z" />
    <glyph glyph-name="uniE006" unicode="&#xe006;" horiz-adv-x="667" 
d="M190 172v87q0 37 18.5 67.5t49 48t66.5 17.5h182q8 0 13 5.5t5 13.5v171q0 7 -5 12.5t-13 5.5h-360v-105h-119v113q6 31 25 56t47 40.5t60 15.5h351q37 0 67 -18t48.5 -48.5t18.5 -67.5v-179q0 -37 -18.5 -67.5t-49 -49t-66.5 -18.5h-181q-7 0 -12.5 -5t-5.5 -13v-82
h-121zM190 0v119h121v-119h-121z" />
    <glyph glyph-name="uniE007" unicode="&#xe007;" horiz-adv-x="723" 
d="M474 0v0v181h-465v115l361 423h115v-58l-326 -360h315v146h119v-146h104v-120h-104v-181h-119z" />
    <glyph glyph-name="uniE008" unicode="&#xe008;" horiz-adv-x="1148" 
d="M585 0v0l-586 692v28h136l465 -550v257l-227 265v28h134l466 -551v551h121v-720h-136l-237 281v-281h-136z" />
    <glyph glyph-name="uniE009" unicode="&#xe009;" horiz-adv-x="1159" 
d="M65 0v0v720h121v-551l466 551h134v-28l-227 -265v-258l465 551h135v-28l-584 -692h-137v281l-235 -281h-138z" />
    <glyph glyph-name="uniE00A" unicode="&#xe00a;" horiz-adv-x="774" 
d="M54 0v0v720h120v-553l462 553h133v-34l-579 -686h-136z" />
    <glyph glyph-name="uniE00B" unicode="&#xe00b;" horiz-adv-x="774" 
d="M2 0v0v27l579 693h135v-720h-120v187h-304l-157 -187h-133zM393 307v0h203v239z" />
    <glyph glyph-name="uniE00C" unicode="&#xe00c;" horiz-adv-x="774" 
d="M54 0v0v720h136l579 -693v-27h-134l-158 187h-303v-187h-120zM174 307v0h204l-204 239v-239z" />
    </font>
</defs>
</svg>
